<?xml version="1.0" encoding="UTF-8" standalone="no"?>
<!-- Created with Inkscape (http://www.inkscape.org/) -->

<svg
   xmlns:osb="http://www.openswatchbook.org/uri/2009/osb"
   xmlns:dc="http://purl.org/dc/elements/1.1/"
   xmlns:cc="http://creativecommons.org/ns#"
   xmlns:rdf="http://www.w3.org/1999/02/22-rdf-syntax-ns#"
   xmlns:svg="http://www.w3.org/2000/svg"
   xmlns="http://www.w3.org/2000/svg"
   xmlns:sodipodi="http://sodipodi.sourceforge.net/DTD/sodipodi-0.dtd"
   xmlns:inkscape="http://www.inkscape.org/namespaces/inkscape"
   version="1.1"
   id="svg815"
   xml:space="preserve"
   width="60.132294mm"
   height="30.132294mm"
   viewBox="0 0 60.132294 30.132294"
   sodipodi:docname="background.svg"
   inkscape:version="0.92.3 (2405546, 2018-03-11)"><sodipodi:namedview
     pagecolor="#ffffff"
     bordercolor="#666666"
     borderopacity="1"
     objecttolerance="10"
     gridtolerance="10"
     guidetolerance="10"
     inkscape:pageopacity="0"
     inkscape:pageshadow="2"
     inkscape:window-width="1920"
     inkscape:window-height="1137"
     id="namedview817"
     showgrid="true"
     inkscape:zoom="3.53074"
     inkscape:cx="130.42496"
     inkscape:cy="47.18307"
     inkscape:window-x="-8"
     inkscape:window-y="-8"
     inkscape:window-maximized="1"
     inkscape:current-layer="g2711"
     borderlayer="true"
     inkscape:document-units="mm"
     fit-margin-top="0"
     fit-margin-left="0"
     fit-margin-right="0"
     fit-margin-bottom="0"><inkscape:grid
       id="grid2689"
       units="mm"
       type="xygrid"
       empspacing="1"
       spacingy="2.54"
       spacingx="2.54"
       originx="0"
       originy="0" /></sodipodi:namedview><metadata
     id="metadata821"><rdf:RDF><cc:Work
         rdf:about=""><dc:format>image/svg+xml</dc:format><dc:type
           rdf:resource="http://purl.org/dc/dcmitype/StillImage" /><dc:title></dc:title></cc:Work></rdf:RDF></metadata><defs
     id="defs819"><linearGradient
       osb:paint="solid"
       id="linearGradient2439"><stop
         id="stop2437"
         offset="0"
         style="stop-color:#000000;stop-opacity:1;" /></linearGradient><pattern
       id="pattern2339"
       patternTransform="matrix(0.75000002,0,0,-0.75000002,130.4121,756.32978) scale(0.05,0.05)"
       height="328.51851"
       width="528.25732"
       patternUnits="userSpaceOnUse"><g
         id="g1945"
         transform="matrix(1.3333333,0,0,-1.3333333,150.79906,43.118313)"><path
           id="path1943"
           style="fill:#000000;fill-opacity:1;fill-rule:nonzero;stroke:none"
           d="m 0,0 v -2.073 c -0.513,0.066 -1.033,0.018 -1.444,0.208 -1.795,0.827 -3.541,1.763 -5.341,2.582 -1.872,0.853 -1.07,1.96 -0.197,2.829 5.257,5.24 12.021,7.985 18.514,11.23 3.929,1.965 8,2.504 12.245,2.491 1.049,-0.003 2.098,-0.233 3.419,-0.391 C 15.635,14.259 8.317,6.177 0.623,-1.445 0.522,-1.21 0.358,-0.83 0,0 m 36.674,7.766 c -0.133,-4.454 -0.278,-8.929 -0.838,-13.343 -0.524,-4.134 -1.571,-8.203 -2.421,-12.294 -0.497,-2.389 -2.04,-0.436 -2.659,-0.301 -1.488,0.324 -3.07,1.139 -4.118,2.231 -0.694,0.724 -0.995,2.419 -0.676,3.426 2.688,8.476 5.561,16.895 8.382,25.329 0.022,0.066 0.111,0.11 0.26,0.251 1.749,-1.358 2.128,-3.344 2.07,-5.299 M 52.375,-4.727 c 1.249,-4.232 1.507,-8.793 1.878,-13.235 0.225,-2.696 -0.154,-5.445 -0.304,-8.168 -0.06,-1.08 -0.507,-1.587 -1.725,-1.131 -0.826,0.31 -1.81,0.205 -2.626,0.53 -0.625,0.25 -1.19,0.808 -1.623,1.355 -2.227,2.807 -0.149,5.893 -0.46,8.864 -0.677,6.486 -0.951,12.985 -3.865,19.027 -0.898,1.861 -1.259,3.981 -1.762,5.641 4.551,-3.147 8.808,-7.194 10.487,-12.883 M 15.056,-10.52 c -0.707,0.438 -1.191,2.538 -0.761,3.304 4.025,7.173 8.965,13.68 15.021,19.292 0.728,0.675 1.505,1.307 2.312,1.887 0.259,0.186 0.686,0.138 1.037,0.198 -0.007,-0.324 0.066,-0.675 -0.033,-0.967 -1.939,-5.71 -3.94,-11.399 -5.838,-17.123 -1.182,-3.565 -2.213,-7.181 -3.315,-10.784 -2.98,1.433 -5.838,2.593 -8.423,4.193 m 30.286,-11.319 c -0.014,-0.771 -0.216,-1.612 -0.589,-2.275 -0.23,-0.409 -1.115,-0.891 -1.423,-0.745 -2.675,1.27 -5.298,2.652 -7.897,4.073 -0.293,0.16 -0.568,0.837 -0.471,1.158 2.814,9.246 3.261,18.746 3.138,28.314 -0.003,0.213 0.256,0.625 0.327,0.611 0.34,-0.068 0.852,-0.168 0.952,-0.405 0.912,-2.147 1.892,-4.283 2.579,-6.506 1.422,-4.595 2.676,-9.242 3.999,-13.868 -0.196,-0.055 -0.393,-0.11 -0.589,-0.165 0,-3.397 0.033,-6.795 -0.026,-10.192 M 3.252,-4.408 c -0.425,0.271 -0.353,2.055 0.074,2.809 2.425,4.279 6.457,6.965 10.277,9.813 2.67,1.991 5.371,4.007 8.295,5.566 1.903,1.014 4.223,1.272 6.38,1.759 0.394,0.089 0.907,-0.345 1.364,-0.538 C 29.434,14.626 29.307,14.16 29.005,13.89 24.078,9.483 19.867,4.462 16.219,-1.035 14.544,-3.558 12.95,-6.134 11.253,-8.79 8.523,-7.34 5.791,-6.027 3.252,-4.408 m 15.039,-9.717 c 0.384,-0.233 0.824,-0.945 0.729,-1.305 -0.671,-2.565 -1.425,-5.112 -2.245,-7.635 -2.818,-8.675 -5.684,-17.334 -8.511,-26.007 -1.11,-3.406 -2.782,-6.315 -6.483,-7.405 -0.59,-0.174 -1.428,-0.149 -1.932,0.151 -1.407,0.837 -2.66,0.868 -3.731,-0.39 -1.654,-1.941 -3.607,-3.195 -6.206,-3.528 -0.75,-0.096 -1.676,-0.768 -2.061,-1.439 -1.973,-3.437 -4.073,-6.641 -8.343,-7.522 -0.637,-0.131 -1.259,-0.454 -1.816,-0.803 -0.366,-0.228 -0.602,-0.664 -0.895,-1.007 0.491,-0.166 1.037,-0.564 1.465,-0.463 3.939,0.931 7.202,3.036 9.552,6.298 1.213,1.683 1.968,3.399 4.493,3.739 1.456,0.196 2.78,1.659 4.078,2.662 1.05,0.811 1.885,1.531 3.374,0.646 0.663,-0.393 1.982,-0.208 2.745,0.199 1.805,0.959 3.252,2.656 5.697,1.698 1.071,-0.42 2.388,-0.629 3.503,-0.429 2.24,0.402 4.047,-0.261 4.915,-2.179 1.169,-2.583 2.722,-3.908 5.681,-4.142 1.718,-0.136 4.122,-0.065 4.745,-2.746 0.585,-2.513 3.46,-4.638 6.055,-4.437 0.717,0.056 1.393,0.911 2.025,1.469 0.102,0.09 -0.078,0.771 -0.208,0.798 -0.435,0.092 -0.97,0.15 -1.354,-0.026 -1.759,-0.803 -4.291,0.259 -4.839,2.095 -0.907,3.04 -2.061,3.965 -5.204,4.314 -2.029,0.226 -3.964,0.517 -5.007,2.762 -1.557,3.355 -4.202,4.592 -7.848,3.52 -0.381,-0.112 -0.964,0.082 -1.319,0.327 -1.859,1.288 -0.468,2.698 -0.037,4.013 2.612,7.959 5.283,15.899 7.9,23.857 1.275,3.875 2.476,7.774 3.692,11.605 2.018,-0.347 0.973,-1.652 0.959,-2.729 -0.009,-0.683 0.292,-1.856 0.67,-1.951 0.637,-0.161 1.548,0.214 2.153,0.637 0.586,0.408 0.931,1.161 1.388,1.77 0.434,-0.241 0.806,-0.464 1.192,-0.659 3.298,-1.661 3.296,-1.659 2.613,-5.246 -0.067,-0.35 -0.199,-0.775 -0.068,-1.057 0.325,-0.698 0.785,-1.333 1.19,-1.993 0.554,0.435 1.331,0.759 1.613,1.329 0.516,1.041 0.74,2.228 1.079,3.335 3.359,-1.711 6.719,-3.424 10.185,-5.19 -0.751,-1.273 -0.495,-2.913 1.259,-3.451 0.608,-0.187 1.781,1.471 2.984,2.542 1.331,-0.354 3.25,-1.007 5.223,-1.308 0.611,-0.093 1.774,0.633 1.976,1.225 0.465,1.365 0.75,2.894 0.657,4.326 -0.375,5.799 -0.636,11.629 -1.495,17.364 -0.65,4.336 -3.048,8.063 -6.145,11.2 -1.641,1.662 -3.421,3.204 -5.252,4.656 -2.313,1.834 -4.743,3.523 -7.131,5.281 0.279,0.621 0.845,1.418 0.962,2.276 0.11,0.805 -0.253,1.675 -0.408,2.516 -0.674,-0.374 -1.376,-0.707 -2.011,-1.139 -0.315,-0.214 -0.449,-0.779 -0.767,-0.887 -0.825,-0.28 -1.774,-0.694 -2.551,-0.516 -1.834,0.42 -3.555,1.408 -5.396,1.715 C 19.144,19.72 12.981,17.738 7.252,14.771 2.244,12.177 -2.457,8.957 -7.145,5.793 c -1.992,-1.344 -3.696,-3.167 -5.32,-4.964 -0.39,-0.432 -0.256,-1.894 0.187,-2.413 1.145,-1.34 2.81,-0.635 3.761,1.483 2.541,-1.269 5.08,-2.537 7.33,-3.661 -0.307,-1.357 -0.773,-2.515 -0.784,-3.677 -0.017,-1.758 1.575,-2.512 3.014,-1.473 0.595,0.43 0.886,1.259 1.424,1.798 0.279,0.279 0.905,0.56 1.187,0.431 1.767,-0.809 3.465,-1.768 5.22,-2.609 1.094,-0.524 1.512,-1.09 1.356,-2.48 -0.106,-0.942 0.655,-2.479 1.472,-2.914 1.343,-0.714 1.81,0.686 2.147,1.784 0.081,0.264 0.197,0.518 0.355,0.928 1.445,-0.745 2.809,-1.376 4.087,-2.151"
           inkscape:connector-curvature="0" /></g><g
         id="g1949"
         transform="matrix(1.3333333,0,0,-1.3333333,48.495328,28.73898)"><path
           id="path1947"
           style="fill:#000000;fill-opacity:1;fill-rule:nonzero;stroke:none"
           d="m 0,0 c -1.993,-1.295 -8.041,-2.174 -10.083,-0.933 -0.585,0.355 -1.433,1.271 -1.306,1.603 0.281,0.733 0.997,1.477 1.724,1.832 C -5.616,4.48 -1.522,6.368 2.589,8.216 3.178,8.48 3.942,8.356 4.705,8.419 3.653,5.157 3.049,1.981 0,0 m 8.637,9.058 c 1.918,0.184 3.89,-0.151 5.802,0.063 4.413,0.493 8.349,-1.023 12.191,-2.762 2.733,-1.237 4.54,-3.529 5.958,-6.211 2.483,-4.695 3.711,-9.686 4.08,-14.933 0.039,-0.546 0.005,-1.096 0.005,-1.188 C 33.384,-11.722 29.877,-7.32 26.515,-2.81 23.411,1.355 18.904,3.401 14.384,5.345 11.954,6.39 9.252,6.803 6.014,7.679 7.006,8.225 7.789,8.977 8.637,9.058 M -4.125,-47.416 c -3.069,1.545 -6.24,2.943 -9.127,4.781 -6.238,3.974 -8.903,10.185 -9.917,17.209 -1.206,8.353 1.348,15.589 6.696,22.015 1.481,1.78 2.201,2.625 4.925,1.192 2.496,-1.312 2.238,-2.572 1.878,-4.347 -1.27,-6.255 -0.892,-12.356 0.723,-18.555 1.817,-6.976 4.388,-13.599 8.837,-19.2 1.831,-2.306 5.091,-3.478 7.709,-5.154 0.359,-0.23 0.766,-0.386 1.614,-0.806 -5.066,-0.268 -9.311,0.837 -13.338,2.865 m 26.55,20.835 c -1.37,3.97 -3.681,7.671 -5.934,11.265 -2.861,4.564 -6.08,8.904 -9.169,13.324 C 6.939,-1.443 6.433,-0.974 5.948,-0.505 4.864,0.542 4.341,1.409 4.9,3.23 5.559,5.38 6.439,5.524 8.322,5.28 14.599,4.466 20.043,1.578 24.176,-2.809 c 4.136,-4.389 7.507,-9.624 10.555,-14.87 2.299,-3.956 1.869,-8.588 0.776,-13.034 -1.36,-5.533 -4.768,-9.458 -9.04,-12.081 -1.289,5.349 -2.221,10.934 -4.042,16.213 m -30.23,20.922 c 0.5,2.865 3.097,2.448 5.061,3.057 1.531,0.475 2.964,1.274 4.503,1.712 0.694,0.198 1.935,0.165 2.255,-0.264 4.063,-5.454 8.027,-10.982 11.967,-16.525 3.126,-4.399 5.21,-9.295 6.367,-14.543 0.852,-3.868 2.419,-7.686 1.361,-11.782 -0.084,-0.325 -0.216,-0.778 -0.461,-0.9 -3.16,-1.566 -6.292,-3.214 -9.56,-4.519 -0.805,-0.322 -2.146,0.359 -3.11,0.84 -2.859,1.426 -6.087,2.506 -8.374,4.594 -3.866,3.528 -6.057,8.316 -7.583,13.34 -0.806,2.655 -1.799,5.265 -2.424,7.96 -0.617,2.658 -0.876,5.399 -1.278,8.014 0.434,3.128 0.765,6.088 1.276,9.016 m -5.421,8.846 c -1.369,-1.824 -2.629,-3.745 -4.129,-5.454 -3.563,-4.055 -6.016,-8.461 -7.096,-13.936 -1.488,-7.548 -0.049,-14.268 3.479,-20.853 1.875,-3.5 4.794,-6.074 7.94,-8.035 3.784,-2.358 8.133,-3.833 12.292,-5.562 6.457,-2.684 12.977,-1.819 19.003,0.95 4.416,2.028 8.368,5.145 12.325,8.052 1.781,1.308 3.468,3.074 4.5,5.005 2.414,4.515 3.229,9.617 3.292,14.624 0.089,7.113 -0.061,14.262 -3.411,20.942 -2.067,4.122 -4.489,7.623 -8.821,9.573 -4.692,2.113 -9.634,2.526 -14.665,2.32 C 8.692,10.699 5.747,10.876 3.154,10.044 -2.983,8.072 -8.912,5.496 -14.151,1.54 c 0.403,0.466 0.806,0.931 1.209,1.397 -0.095,0.083 -0.189,0.167 -0.284,0.25"
           inkscape:connector-curvature="0" /></g><g
         id="g1953"
         transform="matrix(1.3333333,0,0,-1.3333333,384.07532,180.97444)"><path
           id="path1951"
           style="fill:#000000;fill-opacity:1;fill-rule:nonzero;stroke:none"
           d="m 0,0 c 0.175,0.026 0.349,0.052 0.524,0.079 0.102,-0.528 0.398,-1.107 0.275,-1.576 -0.819,-3.113 -1.715,-6.206 -2.63,-9.293 -0.092,-0.31 -0.483,-0.533 -0.736,-0.796 -0.127,0.078 -0.255,0.156 -0.382,0.234 C -1.966,-7.568 -0.983,-3.784 0,0 m 59.926,-7.457 c 2.415,1.177 3.075,-1.61 4.537,-2.278 2.295,-1.048 1.083,-1.959 -0.188,-2.81 -0.141,-0.094 -0.413,-0.185 -0.515,-0.116 -2.366,1.601 -4.717,3.224 -7.16,4.905 1.158,0.104 2.242,0.201 3.326,0.299 M 13.145,-19.146 c -0.146,0.12 -0.293,0.239 -0.439,0.358 1.348,0.428 2.696,0.856 4.521,1.435 -0.903,-1.26 -1.576,-2.138 -2.183,-3.059 -1.625,-2.468 -3.243,-4.941 -4.819,-7.44 -0.772,-1.224 -2.641,-1.24 -4.223,0.126 2.416,2.903 4.78,5.742 7.143,8.58 M 2.592,-2.261 c 0.362,1.308 1.165,0.874 2.102,0.56 4.566,-1.53 9.164,-2.967 13.931,-4.494 -6.069,-1.173 -12.047,-2.329 -17.994,-3.478 0.588,2.235 1.245,4.832 1.961,7.412 M 19.747,-4.284 C 14.88,-2.734 9.837,-1.683 5.075,0.123 0.23,1.961 -4.365,4.46 -9.07,6.668 c -0.357,0.167 -0.723,0.316 -1.081,0.472 0.906,2.907 2.247,3.376 4.939,1.998 4.477,-2.292 8.936,-4.642 13.546,-6.637 2.994,-1.296 6.282,-1.895 9.367,-3.006 3.054,-1.1 6.018,-2.451 8.887,-3.637 -2.132,-2.081 -4.427,-0.91 -6.841,-0.142 M 76.352,8.237 C 76.919,8.048 77.546,7.239 77.65,6.617 77.956,4.786 78.122,2.916 78.139,1.059 78.154,-0.578 76.738,-0.71 75.531,-1.012 72.994,-1.647 70.461,-2.298 67.943,-3 64.361,-3.998 60.831,-5.67 57.21,-5.883 c -3.011,-0.177 -5.604,-0.77 -8.247,-2.04 -1.547,-0.742 -3.336,-0.974 -5.011,-1.455 -4.246,-1.22 -8.477,-2.492 -12.736,-3.664 -3.963,-1.092 -7.644,-3.538 -12.081,-2.469 -0.745,0.18 -1.672,-0.076 -2.436,-0.351 -3.358,-1.206 -6.828,-1.864 -10.116,-3.597 -3.235,-1.706 -7.295,-1.887 -11.025,-2.563 -0.438,-0.08 -1.354,0.845 -1.565,1.468 -0.482,1.428 -0.724,2.948 -0.951,4.448 -0.161,1.065 0.119,1.652 1.494,1.851 1.769,0.257 3.56,0.892 5.153,1.726 4.358,2.281 8.969,3.572 13.829,4.087 2.942,0.312 5.887,0.603 8.824,0.958 0.741,0.089 1.609,0.193 2.155,0.623 2.192,1.728 4.769,1.303 7.243,1.58 0.945,0.106 1.812,0.784 2.756,1.054 3.451,0.986 6.931,1.871 10.379,2.868 4.092,1.183 8.176,2.394 12.235,3.685 3.733,1.187 7.426,2.504 11.141,3.749 1.616,0.541 3.234,1.08 4.874,1.538 0.395,0.111 0.88,-0.1 1.152,-0.139 0.838,0.339 1.583,0.927 2.075,0.763 M 10.705,-19.672 C 8.564,-22.01 6.414,-24.34 4.286,-26.69 c -0.576,-0.636 -2.127,-1.299 -0.499,-2.2 1.782,-0.986 3.758,-1.652 5.705,-2.284 0.393,-0.127 1.115,0.444 1.541,0.846 0.268,0.253 0.178,0.85 0.403,1.19 2.578,3.889 5.181,7.761 7.796,11.624 0.131,0.193 0.485,0.424 0.656,0.373 3.855,-1.147 7.039,1.241 10.474,2.097 3.982,0.992 7.725,3.025 11.727,3.824 3.098,0.618 6.122,1.069 8.98,2.533 0.872,0.446 2.33,0.409 3.24,-0.012 2.334,-1.079 4.54,-2.452 6.738,-3.805 0.791,-0.486 1.553,-1.151 2.078,-1.908 0.972,-1.399 1.477,-0.913 2.239,0.194 0.531,0.772 1.392,1.32 2.121,1.951 0.479,0.414 0.984,0.797 1.477,1.195 -0.399,0.484 -0.721,1.073 -1.212,1.432 -1.604,1.175 -3.269,2.266 -5.411,3.732 1.884,0.364 3.106,0.481 4.246,0.85 1.429,0.464 2.746,1.318 4.193,1.667 1.738,0.419 3.558,0.604 5.35,0.673 2.383,0.092 4.04,2.055 3.926,3.969 -0.137,2.324 -0.57,4.646 -1.064,6.928 -0.479,2.213 -1.455,2.559 -3.421,1.522 C 75.116,9.462 74.592,9.354 74.094,9.206 70.07,8.006 66.033,6.846 62.021,5.605 55.994,3.74 49.998,1.776 43.962,-0.059 c -3.226,-0.98 -6.707,-1.357 -9.7,-2.787 -2.44,-1.166 -4.37,-0.392 -6.354,0.286 -3.353,1.146 -6.522,2.826 -9.864,4.01 -2.982,1.056 -6.228,1.433 -9.12,2.666 -4.935,2.103 -9.676,4.655 -14.513,6.99 -2.929,1.414 -3.542,1.206 -5.252,-1.437 -0.333,-0.515 -0.809,-0.994 -1.326,-1.321 -1.284,-0.812 -1.312,-1.748 -0.081,-2.424 3.161,-1.735 6.421,-3.291 9.601,-4.994 0.378,-0.203 0.791,-0.941 0.704,-1.318 -0.674,-2.902 -1.415,-5.79 -2.244,-8.651 -0.524,-1.809 -0.606,-4.007 -3.377,-4.112 -1.56,-0.059 -1.75,-1.118 -1.383,-2.486 0.389,-1.447 0.583,-2.946 0.882,-4.419 0.675,-3.328 1.714,-4.51 4.432,-3.928 4.481,0.961 9.133,1.558 13.082,4.229 0.274,0.186 0.578,0.328 0.869,0.49 0.129,-0.136 0.258,-0.271 0.387,-0.407"
           inkscape:connector-curvature="0" /></g><g
         id="g1957"
         transform="matrix(1.3333333,0,0,-1.3333333,263.63159,268.88311)"><path
           id="path1955"
           style="fill:#000000;fill-opacity:1;fill-rule:nonzero;stroke:none"
           d="M 0,0 C 0.34,-1.882 0.63,-3.484 0.938,-5.187 -0.808,-5.241 -1.126,-3.448 0,0 M -2.115,-2.706 C -4.054,-0.473 -3.67,2.013 -0.978,3.481 -1.366,1.37 -1.751,-0.728 -2.115,-2.706 m 2.801,16.9 c -0.459,3.78 -1.001,7.552 -1.342,11.343 -0.168,1.875 -0.001,3.785 0.121,5.673 0.013,0.201 0.755,0.534 1.136,0.504 3.908,-0.308 6.794,-2.372 9.065,-5.433 0.628,-0.847 1.222,-1.719 1.883,-2.652 C 6.016,22.495 1.299,20.754 0.686,14.194 M 10.963,-28.28 c -1.971,3.28 -4.346,6.352 -5.749,9.817 -1.409,3.48 -1.848,7.353 -2.751,11.222 7.649,-1.502 12.942,-15.067 8.5,-21.039 M 2.594,14.001 c 0.428,1.98 0.669,3.939 2.676,5.325 2.313,1.598 4.72,2.308 7.435,2.304 3.64,-9.589 1.519,-15.629 -11.629,-15.531 0.511,2.69 0.958,5.308 1.518,7.902 m 7.464,-43.432 c -2.603,-3.231 -6.292,-4.646 -10.627,-4.321 -1.111,0.083 -2.127,0.804 -1.742,2.355 0.149,0.6 -0.053,1.281 0.053,1.899 0.4,2.322 1.164,4.625 1.231,6.951 0.109,3.789 -0.259,7.591 -0.346,11.389 -0.028,1.24 0.062,2.521 0.378,3.708 0.098,0.371 1.116,0.497 2.068,0.877 0.951,-8.576 2.884,-16.495 8.985,-22.858 m -12.449,8.694 c 0.013,-1.034 -0.518,-2.063 -0.677,-3.113 -0.299,-1.983 -0.584,-3.974 -0.737,-5.972 -0.18,-2.363 -0.548,-2.775 -2.586,-1.681 -2.737,1.47 -5.255,3.418 -6.221,6.526 -1.798,5.79 0.092,12.027 4.376,16.006 1.37,1.273 3.517,1.71 5.428,2.584 0.16,-5.032 0.356,-9.69 0.417,-14.35 m 1.424,37.361 c 0.282,-3.182 0.393,-6.381 0.503,-9.575 0.008,-0.232 -0.684,-0.753 -0.948,-0.692 -7.481,1.717 -12.935,10.008 -10.115,17.693 0.331,0.903 0.863,1.908 1.605,2.453 2.498,1.834 5.132,3.481 7.417,5.002 0.545,-5.211 1.108,-10.04 1.538,-14.881 m 1.02,-52.062 c 4.852,-0.033 9.1,1.58 11.84,5.61 3.265,4.801 3.052,10.373 1.025,15.412 -1.641,4.077 -5.374,6.784 -9.453,8.707 -0.525,0.247 -1.094,0.821 -1.247,1.357 -0.507,1.774 -1.004,3.585 -1.159,5.411 -0.084,0.996 0.296,2.771 0.866,2.954 2.276,0.731 4.764,0.783 7.071,1.445 3.378,0.97 5.997,2.981 6.785,6.643 0.631,2.931 -0.252,5.649 -1.027,8.503 -1.102,4.057 -4.009,6.741 -6.513,9.606 -1.523,1.743 -4.418,2.287 -6.67,3.358 1.047,1.438 0.84,3.322 -0.558,4.454 C 0.545,38.4 -1.528,37.104 -2.655,36.282 -4.295,35.088 -2.942,34.146 -1.803,33.1 -8.195,30.476 -14.162,27.509 -13.778,19.42 -13.434,12.176 -9.14,7.666 -2.803,4.574 -6.689,1.639 -5.299,-1.698 -3.218,-4.683 -5.493,-5.83 -8.014,-6.446 -9.556,-8.021 c -2.93,-2.992 -4.778,-6.752 -5.164,-11.089 -0.623,-6.996 2.07,-10.958 8.506,-14.156 0.423,-0.21 1.035,-0.989 0.963,-1.094 -0.662,-0.962 -1.455,-1.833 -2.09,-2.587 0.802,-0.37 2.195,-1.274 3.718,-1.643 1.677,-0.407 3.23,1.26 3.125,3.09 0.241,0.028 0.396,0.063 0.551,0.062"
           inkscape:connector-curvature="0" /></g><g
         id="g1961"
         transform="matrix(1.3333333,0,0,-1.3333333,490.20265,48.221513)"><path
           id="path1959"
           style="fill:#000000;fill-opacity:1;fill-rule:nonzero;stroke:none"
           d="M 0,0 C 0.01,0.852 0.227,1.781 0.619,2.533 1.529,4.279 2.98,2.961 3.648,2.524 7.309,0.132 9.984,-3.216 7.263,-7.819 5.617,-10.602 3.41,-13.054 1.44,-15.644 1.306,-15.821 1.052,-15.915 0.842,-16.025 0.707,-16.096 0.551,-16.125 -0.051,-16.321 -0.043,-10.712 -0.062,-5.355 0,0 m 2.998,5.732 c 1.208,0.614 -0.921,2.263 1.188,2.947 5.877,1.909 11.722,2.58 17.722,0.886 2.26,-0.639 3.908,-2.023 4.517,-4.381 C 26.473,4.998 25.964,4.437 25.72,4.44 20.178,4.515 14.637,4.668 9.095,4.751 7.4,4.776 5.702,4.638 4.358,4.588 3.618,5.21 3.308,5.471 2.998,5.732 M 2.266,24.388 C 2.367,20.685 2.33,16.973 2.203,13.271 c -0.035,-1.01 -0.59,-2.01 -0.984,-2.983 -0.035,-0.085 -0.71,-0.029 -1,0.126 -4.265,2.274 -5.413,6.174 -5.889,10.65 -0.575,5.411 2.073,9.167 5.661,12.594 0.219,0.21 0.56,0.292 1.623,0.822 0.244,-3.631 0.563,-6.858 0.652,-10.092 m -18.77,-13.642 c 1.875,0.49 3.75,0.987 5.606,1.543 3.418,1.024 6.211,-0.066 8.641,-2.46 C -2.09,9.664 -1.799,9.351 -1.839,9.292 -2.824,7.838 -3.674,5.353 -4.892,5.154 -10.794,4.189 -16.793,3.794 -22.767,3.306 c -1.332,-0.109 -2.7,0.222 -4.288,0.374 3.032,3.498 6.336,5.967 10.551,7.066 m -18.299,-47.731 c -1.89,0.423 -3.57,0.301 -4.562,-1.721 -2.006,-4.091 -4.08,-8.15 -6.01,-12.277 -0.278,-0.595 0.09,-1.491 0.159,-2.248 0.662,0.516 1.639,0.895 1.935,1.572 1.393,3.193 2.34,6.603 3.941,9.678 1.801,3.457 1.993,4.279 5.892,2.867 1.44,-0.522 2.526,-0.272 2.848,1.532 0.15,0.84 0.534,1.675 0.979,2.412 0.231,0.384 1.044,0.868 1.213,0.751 0.457,-0.314 0.957,-0.908 0.992,-1.421 0.071,-1.059 -0.277,-2.146 -0.201,-3.204 0.043,-0.604 0.439,-1.446 0.927,-1.701 1.109,-0.579 2.473,-0.687 3.549,-1.307 1.484,-0.855 1.625,-0.153 2,1.073 0.511,1.67 1.169,3.376 2.17,4.776 0.421,0.588 1.883,0.431 2.871,0.613 0.141,-0.777 0.408,-1.558 0.384,-2.331 -0.02,-0.649 -0.241,-1.385 -0.612,-1.915 -1.411,-2.014 -0.218,-3.415 1.072,-4.724 1.776,-1.802 2.445,-1.732 3.777,0.32 0.622,0.959 1.019,2.064 1.627,3.034 0.665,1.06 1.19,2.543 2.932,1.866 2.034,-0.79 2.635,-2.367 2.319,-4.534 -0.151,-1.034 0.044,-2.598 0.719,-3.166 1.094,-0.922 2.741,-1.163 4.093,-1.817 0.442,-0.214 1.061,-0.923 0.975,-1.232 -0.816,-2.945 -1.59,-5.924 -2.729,-8.752 -1.128,-2.8 -2.685,-5.426 -3.988,-8.16 -0.139,-0.291 0.164,-0.794 0.262,-1.198 0.381,0.208 0.967,0.323 1.111,0.64 2.252,4.955 4.511,9.909 6.631,14.921 1.356,3.205 0.669,4.199 -2.547,5.324 -1.353,0.474 -3.471,1.001 -2.984,3.126 0.677,2.959 -0.781,5.712 -3.795,6.623 -1.207,0.364 -2.148,0.377 -2.857,-0.81 -0.805,-1.349 -1.599,-2.708 -2.48,-4.007 -0.373,-0.549 -0.956,-0.954 -1.443,-1.425 -0.411,0.907 -1.207,1.837 -1.152,2.715 0.112,1.806 1.232,3.696 0.897,5.34 -0.31,1.516 0.067,2.486 0.571,3.696 1.968,4.731 4.027,9.433 5.753,14.253 1.827,5.101 3.314,10.324 4.949,15.494 0.193,-0.061 0.386,-0.122 0.58,-0.182 -0.049,-0.385 -0.147,-0.772 -0.138,-1.155 0.096,-3.921 0.165,-7.843 0.35,-11.759 0.046,-0.978 0.485,-1.937 0.743,-2.905 1.255,0.42 2.928,0.47 3.685,1.329 2.205,2.5 4.191,5.229 5.982,8.046 1.838,2.892 2.25,6.007 0.09,9.03 C 8.1,0.901 7.46,1.662 6.591,2.774 12.703,2.675 18.509,2.515 24.314,2.535 c 1.41,0.004 2.818,0.6 4.227,0.924 -0.866,1.971 -1.187,4.833 -2.695,5.758 -6.368,3.905 -13.308,4.023 -20.314,1.555 -0.69,-0.243 -1.405,-0.41 -2.227,-0.647 0.193,1.193 0.455,2.144 0.481,3.101 0.077,2.773 -0.034,5.554 0.1,8.324 0.226,4.694 0.662,9.404 -1.472,13.813 -0.224,0.461 -1.476,0.964 -1.802,0.754 -3.551,-2.293 -6.418,-5.343 -7.516,-9.448 -1.11,-4.152 -0.966,-8.424 1.167,-12.694 -1.423,0.197 -2.641,0.679 -3.709,0.452 -2.765,-0.586 -5.449,-1.544 -8.193,-2.246 -4.427,-1.133 -7.574,-4.188 -10.777,-7.131 -0.47,-0.432 -0.551,-1.462 -0.511,-2.199 0.019,-0.343 0.754,-0.914 1.176,-0.925 3.569,-0.094 7.145,-0.177 10.712,-0.064 1.727,0.055 3.432,0.617 5.162,0.806 2.481,0.271 5.014,0.212 7.454,0.67 1.949,0.366 1.833,-0.461 1.353,-1.663 -0.91,-2.285 -2.108,-4.47 -2.856,-6.803 -1.549,-4.831 -2.75,-9.776 -4.346,-14.59 -1.25,-3.767 -2.843,-7.423 -4.364,-11.095 -0.411,-0.994 -1.065,-2.631 -1.69,-2.67 -3.588,-0.227 -5.371,-2.229 -6.011,-5.454 -0.236,-1.186 -0.713,-1.478 -1.729,-1.194 -0.974,0.272 -1.859,0.381 -1.808,1.959 0.052,1.62 -0.51,3.302 -1.031,4.882 -0.256,0.778 -1.025,1.387 -1.595,2.115 -1.228,-1.758 -2.697,-3.86 -4.399,-6.296 -0.304,0.078 -1.099,0.305 -1.904,0.486"
           inkscape:connector-curvature="0" /></g><g
         id="g1965"
         transform="matrix(1.3333333,0,0,-1.3333333,478.53652,124.56018)"><path
           id="path1963"
           style="fill:#000000;fill-opacity:1;fill-rule:nonzero;stroke:none"
           d="m 0,0 c -0.934,-2.242 -3.126,-2.644 -4.752,-0.842 -0.141,0.156 -0.092,0.58 -0.001,0.832 0.637,1.757 1.296,3.507 1.985,5.244 0.078,0.196 0.373,0.373 0.599,0.425 0.255,0.06 0.556,0.011 0.818,-0.061 C 1.989,4.682 1.988,4.679 0.555,1.324 0.37,0.883 0.184,0.442 0,0 M 2.01,0.518 C 2.434,1.797 2.975,3.054 3.225,4.366 3.323,4.879 2.907,5.865 2.484,6.034 1.057,6.605 -0.46,7.051 -1.981,7.242 -2.645,7.325 -3.795,6.858 -4.047,6.322 -5.153,3.973 -6.033,1.514 -6.93,-0.928 c -0.111,-0.3 0.045,-0.95 0.279,-1.084 1.235,-0.703 2.503,-1.378 3.829,-1.876 0.506,-0.19 1.418,-0.103 1.766,0.24 1.214,1.202 2.263,2.571 3.375,3.876 C 2.216,0.324 2.113,0.421 2.01,0.518"
           inkscape:connector-curvature="0" /></g><g
         id="g1969"
         transform="matrix(1.3333333,0,0,-1.3333333,448.72892,115.92911)"><path
           id="path1967"
           style="fill:#000000;fill-opacity:1;fill-rule:nonzero;stroke:none"
           d="M 0,0 C -1.883,0.639 -2.535,1.954 -1.527,3.736 -1.31,4.119 -0.374,4.36 0.15,4.256 2.529,3.786 1.954,2.193 1.21,0.209 0.96,0.159 0.406,-0.138 0,0 m -3.849,0.177 c -0.014,-0.152 0.167,-0.403 0.32,-0.475 1.185,-0.557 2.341,-1.296 3.593,-1.555 1.331,-0.274 2.635,0.067 2.947,1.808 C 3.178,0.888 3.663,1.802 3.644,2.718 3.629,3.415 3.17,4.208 2.687,4.767 1.98,5.585 1.098,6.261 0.241,6.933 -0.039,7.152 -0.643,7.378 -0.815,7.242 -1.684,6.552 -2.46,5.745 -3.359,4.894 -3.53,3.303 -3.708,1.742 -3.849,0.177"
           inkscape:connector-curvature="0" /></g><g
         id="g1973"
         transform="matrix(1.3333333,0,0,-1.3333333,33.082261,198.66218)"><path
           id="path1971"
           style="fill:#000000;fill-opacity:1;fill-rule:nonzero;stroke:none"
           d="M 0,0 C -0.165,-0.308 -1.069,-0.221 -2.2,-0.404 -1.069,0.79 -0.43,1.463 0.484,2.428 0.334,1.534 0.356,0.665 0,0 m 31.002,34.431 c 0.014,-0.369 -0.576,-0.76 -0.9,-1.141 -0.419,0.403 -0.938,0.752 -1.204,1.239 -0.093,0.171 0.434,0.681 0.915,1.382 0.599,-0.702 1.175,-1.081 1.189,-1.48 m 12.284,-44.968 c -0.486,0.285 -1.011,0.908 -1.047,1.428 -0.032,0.451 0.585,0.947 0.916,1.424 0.484,-0.459 0.968,-0.918 1.816,-1.721 -0.837,-0.583 -1.49,-1.246 -1.685,-1.131 M -3.293,26.288 c -0.197,-0.69 -0.942,-1.223 -1.452,-1.823 -0.626,0.572 -1.271,1.128 -1.84,1.752 -0.038,0.042 0.437,0.677 0.766,0.898 0.434,0.292 0.96,0.446 1.931,0.872 0.182,-0.466 0.742,-1.183 0.595,-1.699 M 35.346,-0.957 c 0.143,-1.377 -0.031,-2.786 -0.081,-4.183 -0.657,0.149 -1.82,0.195 -1.876,0.467 -0.159,0.778 0.093,1.655 0.258,2.478 0.126,0.631 0.366,1.239 0.681,2.27 0.144,-0.136 0.968,-0.544 1.018,-1.032 m -11.515,21.01 c -0.707,-0.783 -1.747,-1.301 -2.739,-1.746 -0.13,-0.058 -1.137,1.094 -1.018,1.355 0.43,0.94 1.169,1.737 1.791,2.588 0.356,-0.031 0.713,-0.063 1.069,-0.095 0.327,-0.726 1.111,-1.865 0.897,-2.102 m 9.055,6.514 c -0.37,-0.856 -1.497,-1.44 -2.405,-1.961 -0.169,-0.097 -1.249,0.8 -1.184,0.989 0.416,1.216 1.035,2.362 1.587,3.531 0.332,-0.025 0.663,-0.049 0.994,-0.073 0.376,-0.846 1.257,-1.91 1.008,-2.486 m -38.294,-8.15 c -0.1,0.251 0.723,1.024 1.255,1.3 0.264,0.138 0.947,-0.199 1.235,-0.511 0.554,-0.599 1.279,-1.309 1.333,-2.02 0.048,-0.627 -0.72,-1.316 -1.128,-1.978 -0.302,0.017 -0.604,0.033 -0.905,0.05 -0.623,1.043 -1.348,2.045 -1.79,3.159 M 19.6,-34.289 c 0.216,-0.409 -0.739,-1.619 -1.373,-2.251 -1.067,-1.06 -1.693,-0.239 -1.837,0.796 -0.159,1.139 -0.036,2.316 -0.036,3.477 0.235,0.167 0.47,0.334 0.705,0.501 0.886,-0.821 2.01,-1.516 2.541,-2.523 m -10.513,18.31 c 0.112,0.59 0.065,1.211 0.087,1.818 0.806,-0.357 2.208,-0.609 2.295,-1.095 0.183,-1.021 -0.178,-2.232 -0.622,-3.227 -0.187,-0.42 -1.253,-0.801 -1.734,-0.641 -0.524,0.173 -0.832,0.995 -0.848,1.016 0.446,1.125 0.723,1.61 0.822,2.129 m 15.575,8.745 c 1.727,0.291 2.094,-1.514 1.774,-2.639 -0.231,-0.81 -1.541,-1.382 -2.472,-1.861 -0.169,-0.087 -0.833,0.787 -1.643,1.587 0.94,1.235 1.523,2.775 2.341,2.913 m -35.195,-6.169 c -1.037,0.498 -2.054,1.221 -2.749,2.115 -0.161,0.208 0.944,2.032 1.534,2.07 1.572,0.101 2.928,-0.593 2.828,-3.161 -0.551,-0.368 -1.309,-1.17 -1.613,-1.024 m -1.778,-1.864 c -2.822,-0.475 -5.361,-1.014 -7.928,-1.272 -0.868,-0.087 -1.806,0.538 -2.713,0.838 0.528,1.088 0.774,2.613 1.642,3.175 1.855,1.202 4.032,1.904 6.334,2.925 -0.361,-2.649 -0.977,-1.84 2.665,-5.666 m 33.082,-5.413 c -0.006,-1.918 -0.014,-3.837 -0.017,-5.755 -0.003,-1.886 -0.001,-3.772 -0.001,-6.001 -1.959,1.457 -3.649,2.938 -5.58,1.067 -1.643,-1.593 -1.461,-4.39 0.61,-6.526 0.685,-0.707 2.282,-0.531 3.615,-0.788 -0.293,-0.78 -0.783,-2.096 -1.279,-3.409 -0.564,-1.493 -1.324,-1.096 -2.181,-0.251 -1.934,1.908 -2.36,4.353 -2.815,6.91 -0.86,4.833 -2.027,9.612 -3.078,14.469 2.558,1.181 3.906,3.462 3.183,5.837 -0.527,1.735 -1.632,2.851 -3.602,2.617 -2.29,-0.272 -3.69,-1.865 -3.743,-3.86 -4.601,0.724 -9.242,1.454 -13.861,2.181 0.337,2.129 0.872,4.684 -1.732,6.853 3.389,0.955 6.123,2.607 6.053,7.34 2.218,-3.102 4.156,-2.418 5.6,-0.322 0.504,0.73 0.302,2.317 -0.136,3.251 -1.009,2.148 -3.029,1.268 -4.805,1.178 -0.728,3.262 -1.464,6.563 -2.209,9.9 3.527,-0.434 5.098,0.05 5.245,2.157 0.092,1.313 -0.825,2.845 -1.649,4.029 -0.77,1.107 -1.938,1.699 -3.543,0.986 -1.374,-0.609 -2.383,-0.198 -2.802,1.645 -0.583,2.57 -1.617,5.037 -2.59,7.939 0.515,0.265 1.314,0.975 2.15,1.021 0.774,0.043 1.587,-0.624 2.791,-1.161 -2.666,-0.919 -2.711,-2.926 -2.53,-4.382 0.141,-1.14 1.413,-2.66 2.522,-3.051 2.253,-0.795 3.342,1.077 4.14,2.91 1.933,-2.032 3.794,-3.971 5.636,-5.928 2.487,-2.642 5.155,-4.803 9.086,-4.928 2.339,-0.075 3.997,0.752 5.295,2.589 1.753,-2.336 3.823,-1.091 5.574,-0.315 0.738,0.327 1.351,1.856 1.319,2.816 -0.076,2.338 -1.127,3.96 -4.691,2.826 2.249,4.019 4.149,7.414 5.716,10.213 1.669,-0.722 3.086,-1.893 4.144,-1.628 0.96,0.24 1.972,1.995 2.103,3.177 0.08,0.716 -1.474,1.613 -2.379,2.514 0.686,1.152 3.423,0.938 4.575,-0.883 1.259,-1.99 1.278,-4.147 0.521,-6.328 -0.269,-0.775 -0.599,-1.53 -0.999,-2.541 -1.046,2.234 -2.515,3.43 -4.584,1.933 -1.371,-0.994 -3.383,-2.056 -2.418,-4.353 0.976,-2.322 2.554,-2.893 4.894,-2.115 C 31.417,20.438 30.432,17.729 29.62,14.969 28.258,10.338 28.874,6.125 32.481,2.595 32.73,2.351 32.743,1.487 32.51,1.192 c -1.959,-2.49 -1.9,-6.451 0.192,-7.563 2.516,-1.338 4.679,-0.098 4.76,2.732 0.011,0.353 0.002,0.706 0.002,1.342 2.412,-1.377 4.626,-2.643 6.841,-3.908 -2.711,1.492 -3.113,-1.231 -3.911,-2.437 -0.404,-0.609 0.235,-2.736 0.919,-3.048 1.116,-0.51 3.25,-0.632 3.868,0.057 0.85,0.946 0.687,2.802 0.937,4.155 0.858,-0.57 2.225,-1.35 3.443,-2.318 1.4,-1.114 1.184,-2.399 -0.552,-2.656 -2.195,-0.325 -4.478,-0.401 -6.686,-0.192 -2.621,0.247 -5.186,1.126 -7.807,1.327 -2.187,0.167 -4.419,-0.249 -6.642,-0.408 0.857,1.997 -0.113,5.227 -1.9,5.93 -1.649,0.648 -3.065,0.174 -3.951,-1.447 -0.511,-0.936 -1.485,-2.008 -1.32,-2.834 0.266,-1.335 1.299,-2.517 2.034,-3.809 -0.559,-1.985 -1.205,-4.281 -1.851,-6.578 -0.038,-0.072 -0.076,-0.145 -0.115,-0.217 m 2.358,2.91 c 0.525,2.402 2.516,4.079 4.858,4.382 0.905,0.117 1.803,0.387 2.707,0.4 2.137,0.032 4.334,0.253 6.403,-0.144 4.303,-0.826 8.472,-2.501 12.958,-0.754 1.954,0.761 3.016,2.923 1.561,4.386 -1.509,1.517 -3.39,2.682 -5.174,3.907 -4.255,2.925 -9.165,4.915 -12.512,9.131 -1.927,2.428 -4.055,4.916 -3.145,8.133 1.538,5.437 3.368,10.814 5.463,16.062 1.233,3.089 1.723,5.973 0.492,9.078 -0.836,2.11 -4.473,4.008 -6.147,3.007 -1.432,-0.856 -2.871,-1.899 -3.908,-3.182 -3.768,-4.666 -6.027,-10.189 -8.357,-15.641 -2.013,-4.707 -5.422,-5.236 -9.32,-2.576 -3.128,2.134 -5.572,5.269 -8.321,7.957 -2.209,2.161 -4.346,4.401 -6.656,6.447 -1.495,1.325 -4.199,1.123 -5.473,-0.244 -1.348,-1.445 -1.6,-3.092 -0.704,-4.932 1.102,-2.262 2.339,-4.497 3.097,-6.877 1.054,-3.314 1.566,-6.799 2.588,-10.125 1.173,-3.814 2.034,-7.618 1.035,-11.565 -0.308,-1.218 -0.825,-2.826 -1.759,-3.36 -2.987,-1.708 -6.211,-3.001 -9.352,-4.434 -0.316,-0.144 -0.693,-0.203 -1.044,-0.21 -2.763,-0.052 -6.553,-2.515 -6.998,-5.829 -0.036,-0.269 -0.287,-0.564 -0.222,-0.782 0.178,-0.601 0.307,-1.449 0.744,-1.702 3.564,-2.067 7.12,-0.636 10.689,0.143 1.972,0.43 3.986,0.968 5.975,0.942 2.811,-0.036 5.655,-0.358 8.413,-0.912 2.723,-0.548 5.906,-1.252 6.857,-4.148 1.628,-4.952 2.853,-10.075 3.749,-15.213 0.497,-2.852 1.472,-5.22 3.362,-7.3 1.211,-1.332 3.384,-1.722 3.792,-0.616 1.226,3.329 2.715,6.647 3.294,10.104 0.561,3.355 0.122,6.878 0.122,10.495 0.288,1.901 0.494,3.962 0.933,5.972"
           inkscape:connector-curvature="0" /></g><g
         id="g1977"
         transform="matrix(1.3333333,0,0,-1.3333333,45.903328,189.79084)"><path
           id="path1975"
           style="fill:#000000;fill-opacity:1;fill-rule:nonzero;stroke:none"
           d="M 0,0 C -0.445,-0.394 -1.33,-0.291 -2.013,-0.415 -2,0.38 -2.104,1.2 -1.944,1.965 -1.776,2.764 -1.355,3.509 -1.013,4.355 0.797,3.528 1.433,1.267 0,0 m -1.356,-2.508 c 1.704,0.006 3.702,1.999 3.744,3.736 0.057,2.311 -1.775,5.052 -3.36,5.028 -1.594,-0.024 -3.194,-2.547 -3.244,-5.114 -0.037,-1.92 1.322,-3.655 2.86,-3.65"
           inkscape:connector-curvature="0" /></g><g
         id="g1981"
         transform="matrix(1.3333333,0,0,-1.3333333,35.814661,209.36218)"><path
           id="path1979"
           style="fill:#000000;fill-opacity:1;fill-rule:nonzero;stroke:none"
           d="M 0,0 C 0.908,-0.339 1.786,-0.816 2.558,-1.396 2.664,-1.475 2.251,-2.7 1.832,-2.915 1.24,-3.219 0.418,-3.078 -0.305,-3.127 c 0.009,0.295 -0.028,0.601 0.038,0.882 0.092,0.391 0.262,0.765 0.399,1.145 -0.346,0.094 -0.692,0.187 -1.362,0.368 C -0.708,-0.406 -0.244,0.091 0,0 M 4.18,-1.447 C 4.164,0.188 2.249,1.781 0.356,1.736 -1.745,1.686 -2.883,0.524 -2.842,-1.531 c 0.037,-1.86 1.539,-3.381 3.308,-3.35 2.311,0.04 3.734,1.356 3.714,3.434"
           inkscape:connector-curvature="0" /></g><g
         id="g1985"
         transform="matrix(1.3333333,0,0,-1.3333333,50.905327,208.02084)"><path
           id="path1983"
           style="fill:#000000;fill-opacity:1;fill-rule:nonzero;stroke:none"
           d="M 0,0 C -0.542,0.674 -1.675,1.704 -1.521,1.96 -0.911,2.976 0.102,3.75 0.966,4.614 1.272,4.054 1.578,3.495 2.128,2.488 1.381,1.615 0.691,0.808 0,0 M 2.234,5.769 C 1.116,7.315 0.097,5.727 -0.93,5.319 -4.036,4.085 -4.558,2.082 -2.219,-0.325 -1.547,-1.017 -0.151,-1.644 0.671,-1.418 2.39,-0.945 3.065,0.632 3.32,2.524 2.976,3.619 2.872,4.887 2.234,5.769"
           inkscape:connector-curvature="0" /></g><g
         id="g1989"
         transform="matrix(1.3333333,0,0,-1.3333333,64.379194,198.04151)"><path
           id="path1987"
           style="fill:#000000;fill-opacity:1;fill-rule:nonzero;stroke:none"
           d="M 0,0 C -0.47,0.891 -1.169,1.748 -1.306,2.687 -1.368,3.112 -0.382,3.915 0.264,4.124 0.585,4.227 1.215,3.373 1.982,2.714 1.175,1.61 0.588,0.805 0,0 M 0.537,5.65 C -1.007,5.39 -3.309,4.644 -3.693,3.554 -4.401,1.544 -1.728,-1.643 -0.084,-1.62 1.67,-1.595 3.097,0.457 3.045,2.885 3.019,4.563 2.234,5.935 0.537,5.65"
           inkscape:connector-curvature="0" /></g><g
         id="g1993"
         transform="matrix(1.3333333,0,0,-1.3333333,56.643327,185.22444)"><path
           id="path1991"
           style="fill:#000000;fill-opacity:1;fill-rule:nonzero;stroke:none"
           d="M 0,0 C 0.873,0.736 1.565,1.319 2.258,1.903 2.372,1.162 2.701,0.371 2.542,-0.306 2.38,-0.992 1.737,-1.564 1.305,-2.187 c -0.764,0.634 -1.528,1.267 -2.292,1.901 0.151,0.182 0.302,0.365 0.452,0.547 C -0.238,0.116 0.058,-0.028 0,0 m -2.456,0.872 c -0.24,-1.982 1.617,-4.417 3.48,-4.646 2.603,-0.319 2.717,1.925 3.036,3.46 C 4.279,0.74 3.788,2.182 3.112,3.066 2.839,3.423 1.212,2.807 0.228,2.535 -0.348,2.376 -0.87,2.023 -1.446,1.743 -1.411,2.333 -1.384,2.77 -1.328,3.696 -1.867,2.391 -2.362,1.656 -2.456,0.872"
           inkscape:connector-curvature="0" /></g><g
         id="g1997"
         transform="matrix(1.3333333,0,0,-1.3333333,57.350127,226.86258)"><path
           id="path1995"
           style="fill:#000000;fill-opacity:1;fill-rule:nonzero;stroke:none"
           d="M 0,0 C 0.039,0.098 -0.589,0.378 -0.767,0.664 -0.977,1.001 -1.093,1.428 -1.133,1.828 -1.155,2.051 -0.876,2.511 -0.839,2.5 -0.444,2.385 0.158,2.285 0.262,2.012 0.488,1.422 0.625,0.693 0.48,0.097 0.35,-0.439 -0.205,-0.873 -0.572,-1.352 -0.641,-1.283 -0.71,-1.215 -0.779,-1.147 -0.504,-0.771 -0.165,-0.419 0,0 m 2.685,0.687 c -0.317,1.947 -2.317,3.915 -3.633,3.576 -1.585,-0.408 -2.814,-3.079 -2.25,-4.89 0.591,-1.898 2.677,-2.763 3.993,-1.53 0.752,0.705 1.194,1.741 1.776,2.627 0.038,0.073 0.076,0.145 0.114,0.217"
           inkscape:connector-curvature="0" /></g><g
         id="g2001"
         transform="matrix(1.3333333,0,0,-1.3333333,406.98385,289.69737)"><path
           id="path1999"
           style="fill:#000000;fill-opacity:1;fill-rule:nonzero;stroke:none"
           d="M 0,0 C -0.011,-0.095 -0.023,-0.189 -0.034,-0.284 -0.873,-0.14 -1.713,0.005 -2.552,0.149 -2.528,0.29 -2.504,0.432 -2.479,0.573 -1.653,0.382 -0.826,0.191 0,0 m -56.071,13.112 c -2.315,0.237 -4.766,0.071 -6.919,0.794 -4.756,1.594 -6.347,7.834 -2.05,11.716 0.324,-3.592 2.025,-4.187 4.736,-2.257 0.793,0.758 1.724,1.418 2.35,2.295 1.369,1.916 1.259,2.142 -1.109,3.326 2.686,0.785 5.108,1.579 7.575,2.184 1.493,0.366 3.022,2.532 2.692,3.991 -0.245,1.08 -0.454,2.223 -0.351,3.306 0.056,0.592 0.823,1.609 1.215,1.584 1.155,-0.074 2.471,-0.316 3.367,-0.977 0.898,-0.661 1.184,-2.487 2.064,-2.763 1.375,-0.43 3.043,-0.087 4.54,0.187 0.26,0.048 0.323,1.369 0.403,2.109 0.041,0.386 -0.178,0.808 -0.109,1.182 0.236,1.275 -0.504,3.179 1.676,3.335 1.312,0.094 2.937,-2.579 2.338,-4.151 -0.943,-2.474 0.811,-3.248 2.301,-3.91 3.903,-1.733 4.872,-2.887 4.859,-7.198 -0.013,-4.159 -0.322,-8.319 -0.252,-12.475 0.069,-4.077 1.15,-7.904 3.745,-11.193 1.888,-2.392 4.835,-2.629 7.669,-2.126 2.351,0.418 4.765,0.485 7.152,0.701 0.745,0.067 1.496,0.184 2.235,0.14 0.388,-0.024 1.01,-0.267 1.098,-0.547 1.297,-4.097 4.271,-5.09 7.41,-2.149 0.606,0.568 0.029,2.417 -0.044,3.673 -0.015,0.255 -0.217,0.5 -0.328,0.74 1.536,1.3 13.573,5.125 14.627,4.861 0.251,-1.736 0.062,-3.594 0.843,-4.848 0.641,-1.028 2.418,-1.389 3.756,-1.86 0.107,-0.038 1.024,1.358 1.033,2.095 0.017,1.345 -0.363,2.694 -0.577,4.038 2.521,0.1 6.26,-5.181 7.183,-10.251 1.113,-6.117 -2.988,-12.386 -9.495,-14.513 0.245,2.701 -0.046,2.944 -2.739,1.905 -1.282,-0.494 -2.727,-0.988 -3.633,-1.929 -1.318,-1.37 -1.358,-2.889 1.203,-3.408 -0.014,-0.218 -0.029,-0.436 -0.044,-0.654 -5.265,-1.522 -10.529,-3.044 -16.215,-4.687 0.299,0.888 0.66,1.39 0.54,1.712 -0.307,0.817 -0.701,2.083 -1.288,2.224 -1.763,0.423 -3.637,0.485 -5.461,0.434 -0.233,-0.007 -0.652,-1.542 -0.561,-2.319 0.071,-0.602 0.805,-1.126 1.536,-2.057 -2.906,-0.608 -5.502,-1.281 -8.14,-1.672 -3.454,-0.512 -6.942,-0.801 -10.415,-1.188 -0.515,-0.057 -1.035,-0.221 -1.539,-0.177 -2.595,0.226 -5.203,0.391 -7.774,0.787 -5.048,0.778 -8.798,7.25 -7.393,12.422 0.836,3.076 2.665,5.471 4.927,7.549 1.3,1.193 2.873,2.084 4.284,3.162 0.298,0.228 0.61,0.687 0.601,1.031 -0.081,2.958 -0.746,5.699 -2.753,8.046 -1.577,1.843 -2.743,4.076 -4.47,5.743 -2.41,2.327 -5.458,3.272 -8.868,2.585 -0.61,-0.123 -1.229,-0.197 -1.708,-0.273 0,0 -4.251,-0.383 -5.723,-0.275 m 15.054,3.975 c 0.85,0.935 1.219,1.4 1.466,2.637 0.303,1.517 -1.072,1.07 -2.388,1.002 -1.372,-0.071 -1.885,-0.539 -5.046,-0.461 -2.183,0.053 -4.824,0.631 -4.495,-0.251 0.893,-2.387 1.214,-4.547 5.431,-5.08 0,0 3.088,0.014 5.032,2.153 M -22.261,5.932 c -1.068,2.372 -2.346,4.862 -2.53,7.375 -0.384,5.238 -0.057,10.525 -0.122,15.791 -0.037,2.993 -0.921,5.58 -4.058,6.789 -1.987,0.765 -3.453,1.739 -2.932,4.396 0.365,1.86 -0.968,3.203 -2.574,4.063 -0.617,0.331 -1.476,0.787 -2.012,0.594 -2.325,-0.84 -3.068,-2.69 -2.942,-5.086 0.037,-0.717 -0.495,-1.464 -0.766,-2.197 -0.821,0.5 -1.709,0.917 -2.444,1.519 -1.035,0.848 -1.806,2.146 -2.956,2.695 -2.394,1.142 -5.259,-0.846 -5.29,-3.486 -0.014,-1.224 0.663,-2.959 0.083,-3.573 -1.296,-1.376 -3.057,-2.635 -4.856,-3.15 -4.181,-1.197 -8.256,-2.227 -11.335,-5.729 -2.33,-2.651 -2.671,-5.491 -1.699,-8.554 0.962,-3.029 3.364,-5.111 6.359,-5.507 3.862,-0.511 7.853,-0.455 11.751,-0.159 3.426,0.26 6.993,1.001 9.55,-1.732 2.404,-2.569 4.393,-5.606 6.152,-8.674 1.469,-2.559 0.411,-5.11 -1.804,-6.283 -7.182,-3.805 -10.576,-12.943 -4.425,-20.341 0.687,-0.826 1.52,-1.887 2.449,-2.091 3.537,-0.776 7.151,-1.768 10.718,-1.705 5.136,0.091 10.262,0.989 15.382,1.626 3.56,0.442 7.151,0.812 10.643,1.596 5.126,1.151 10.196,2.573 15.244,4.039 1.291,0.375 2.443,1.293 3.6,2.053 2.441,1.604 4.923,3.163 7.235,4.941 1.859,1.428 4.089,2.84 5.112,4.802 2.82,5.405 1.76,10.837 -1.36,15.846 C 26.498,8.06 24.68,9.979 21.871,10.758 16.669,12.2 12.168,9.88 7.461,8.425 2.673,6.944 -2.145,5.508 -7.032,4.418 c -2.603,-0.58 -5.379,-0.387 -7.444,-0.506 -3.973,-0.871 -6.805,-0.158 -7.785,2.02"
           inkscape:connector-curvature="0" /></g><g
         id="g2005"
         transform="matrix(1.3333333,0,0,-1.3333333,362.87919,265.77364)"><path
           id="path2003"
           style="fill:#000000;fill-opacity:1;fill-rule:nonzero;stroke:none"
           d="M 0,0 C 0.096,3.186 -0.374,6.005 2.48,7.598 3.029,7.906 4.245,7.882 4.625,7.494 7.556,4.505 6.161,-0.609 2.103,-1.564 1.503,-1.705 0.575,-0.451 0,0"
           inkscape:connector-curvature="0" /></g><g
         id="g2009"
         transform="matrix(1.3333333,0,0,-1.3333333,379.01759,318.41017)"><path
           id="path2007"
           style="fill:#000000;fill-opacity:1;fill-rule:nonzero;stroke:none"
           d="m 0,0 c -2.265,-0.448 -3.575,0.407 -4.424,2.9 -0.242,0.71 -0.775,1.516 -0.608,2.121 0.187,0.672 1.287,1.754 1.531,1.644 C -1.474,5.749 0.673,4.863 2.331,3.44 3.793,2.186 2.601,0.515 0,0"
           inkscape:connector-curvature="0" /></g><g
         id="g2013"
         transform="matrix(1.3333333,0,0,-1.3333333,364.05585,281.14217)"><path
           id="path2011"
           style="fill:#000000;fill-opacity:1;fill-rule:nonzero;stroke:none"
           d="M 0,0 C -0.092,0.671 -0.254,1.342 -0.262,2.015 -0.285,3.924 0.929,4.581 2.603,3.604 5.219,2.078 6.349,-1.357 4.968,-4.056 4.771,-4.442 3.41,-4.747 3.149,-4.499 1.84,-3.254 0.717,-1.812 -0.472,-0.439 -0.315,-0.293 -0.157,-0.146 0,0"
           inkscape:connector-curvature="0" /></g><g
         id="g2017"
         transform="matrix(1.3333333,0,0,-1.3333333,416.16385,303.95524)"><path
           id="path2015"
           style="fill:#000000;fill-opacity:1;fill-rule:nonzero;stroke:none"
           d="m 0,0 c 0.258,-1.537 -0.638,-2.543 -2.319,-2.896 -2.075,-0.437 -4.168,1.435 -4.514,4.503 -0.098,0.868 0.997,2.225 1.9,2.759 C -3.871,4.994 -0.367,1.889 0,0"
           inkscape:connector-curvature="0" /></g><g
         id="g2021"
         transform="matrix(1.3333333,0,0,-1.3333333,355.83639,311.43817)"><path
           id="path2019"
           style="fill:#000000;fill-opacity:1;fill-rule:nonzero;stroke:none"
           d="M 0,0 C -0.378,0.535 -1.161,1.149 -1.245,1.847 -1.602,4.826 1.097,7.115 4.064,6.51 4.287,6.465 4.524,6.489 4.755,6.485 5.227,6.477 6.049,6.602 6.108,6.442 6.321,5.868 6.512,5.096 6.289,4.582 5.22,2.113 3.023,1.016 0,0"
           inkscape:connector-curvature="0" /></g><g
         id="g2025"
         transform="matrix(1.3333333,0,0,-1.3333333,435.58638,296.71817)"><path
           id="path2023"
           style="fill:#000000;fill-opacity:1;fill-rule:nonzero;stroke:none"
           d="m 0,0 c -0.382,-1.241 -0.53,-2.557 -1.198,-3.505 -0.287,-0.408 -2.098,-0.406 -2.442,0.026 -0.792,0.997 -1.302,2.332 -1.561,3.604 -0.213,1.046 0.032,2.209 0.196,3.302 0.249,1.661 1.291,1.83 2.266,0.74 C -1.714,3.022 -1.017,1.585 0,0"
           inkscape:connector-curvature="0" /></g><g
         id="g2029"
         transform="matrix(1.3333333,0,0,-1.3333333,386.13612,301.86777)"><path
           id="path2027"
           style="fill:#000000;fill-opacity:1;fill-rule:nonzero;stroke:none"
           d="M 0,0 C -0.5,2.129 0.955,5.974 2.233,5.821 3.443,5.677 4.856,5.05 5.64,4.16 6.355,3.349 3.816,-1.334 2.763,-1.465 1.461,-1.626 0.132,-1.631 0,0"
           inkscape:connector-curvature="0" /></g><g
         id="g2033"
         transform="matrix(1.3333333,0,0,-1.3333333,347.10305,253.64844)"><path
           id="path2031"
           style="fill:#000000;fill-opacity:1;fill-rule:nonzero;stroke:none"
           d="m 0,0 c 0.151,-1.058 -0.68,-1.74 -1.713,-2.088 -1.305,-0.439 -2.544,-0.408 -2.818,1.4 -0.167,1.106 -0.752,2.38 0.923,2.84 C -2.425,2.477 -0.27,1.269 0,0"
           inkscape:connector-curvature="0" /></g><g
         id="g2037"
         transform="matrix(1.3333333,0,0,-1.3333333,355.45212,252.03391)"><path
           id="path2035"
           style="fill:#000000;fill-opacity:1;fill-rule:nonzero;stroke:none"
           d="m 0,0 c -0.228,-0.303 -0.556,-1.155 -1.155,-1.443 -0.966,-0.466 -2.329,0.904 -2.61,2.498 -0.156,0.891 -0.516,1.941 0.862,2.241 C -1.83,3.529 -0.432,2.128 0,0"
           inkscape:connector-curvature="0" /></g><g
         id="g2041"
         transform="matrix(1.3333333,0,0,-1.3333333,118.60039,280.66471)"><path
           id="path2039"
           style="fill:#000000;fill-opacity:1;fill-rule:nonzero;stroke:none"
           d="m 0,0 c 0.354,-2.604 -0.505,-6.885 -0.789,-10.759 -2.413,2.851 -4.708,5.338 -6.733,8.028 -1.633,2.17 -3.432,4.372 -3.081,7.43 0.639,5.575 2.172,10.673 7.318,13.85 2.118,1.308 6.008,0.763 8.275,-0.593 4.643,-2.777 6.954,-7.202 8.924,-12.133 -1.777,0.822 -3.52,1.642 -5.275,2.436 -1.917,0.868 -3.975,1.507 -5.734,2.621 -2.033,1.285 -3.801,2.987 -5.696,4.492 -0.404,0.321 -0.859,0.577 -1.29,0.863 -0.243,-0.503 -0.811,-1.132 -0.673,-1.486 0.603,-1.547 1.185,-3.197 2.204,-4.463 C -1.402,8.861 -0.03,7.115 -0.119,4.692 -0.199,2.495 -0.106,0.779 0,0 M 1.614,1.283 C 1.694,2.566 1.775,3.849 1.855,5.132 1.456,6.537 1.051,7.94 0.694,9.355 0.687,9.383 1.306,9.718 1.499,9.626 4.933,7.998 8.342,6.32 11.766,4.672 c 0.532,-0.256 1.112,-0.41 1.668,-0.617 1.259,-0.468 2.009,-1.239 2.689,-2.546 2.826,-5.434 6.665,-10.085 11.237,-14.232 2.826,-2.563 5.43,-5.547 7.463,-8.766 2.84,-4.497 -0.581,-8.622 -5.395,-9.433 -6.646,-1.12 -11.092,2.955 -15.665,6.636 -2.88,2.317 -5.596,4.838 -8.374,7.282 -0.384,0.338 -0.677,0.779 -1.053,1.128 -0.798,0.739 -1.807,1.329 -2.382,2.208 -0.506,0.773 -0.704,1.848 -0.745,2.803 -0.071,1.664 0.047,3.34 0.154,5.006 0.083,1.293 0.255,2.581 0.42,3.868 C 1.87,-1.308 1.544,-0.758 1.677,-0.039 1.702,0.262 1.595,1.05 1.614,1.283 m -4.905,-11.427 c 2.693,-3.032 5.26,-6.212 8.222,-8.96 3.513,-3.259 7.346,-6.18 11.12,-9.147 4.698,-3.695 9.779,-5.786 15.935,-3.883 4.29,1.325 7.161,7.196 4.622,10.902 -2.574,3.756 -5.551,7.355 -8.895,10.433 -4.067,3.743 -7.355,7.955 -9.976,12.738 -1.195,2.181 -2.303,4.441 -3.155,6.773 -1.686,4.612 -4.733,7.98 -8.813,10.568 -0.618,0.392 -2.855,1.377 -3.028,1.406 -3.239,0.536 -6.001,0.121 -8.802,-2.12 -4.041,-3.233 -5.452,-7.68 -6.254,-12.213 -0.467,-2.635 0.845,-5.584 1.182,-7.434 3.124,-3.616 5.449,-6.369 7.842,-9.063"
           inkscape:connector-curvature="0" /></g><g
         id="g2045"
         transform="matrix(1.3333333,0,0,-1.3333333,160.77292,234.88231)"><path
           id="path2043"
           style="fill:#000000;fill-opacity:1;fill-rule:nonzero;stroke:none"
           d="M 0,0 C -0.513,0.193 -0.907,1.191 -1.02,1.871 -1.418,4.256 -2.775,5.565 -4.702,5.033 -5.107,4.921 -5.66,3.957 -5.543,3.568 c 0.647,-2.14 2.17,-4.249 2.093,-6.321 -0.12,-3.273 -1.269,-6.509 -1.983,-9.76 -0.271,-0.049 -0.542,-0.098 -0.813,-0.147 -1.092,1.979 -2.468,3.86 -3.199,5.964 -0.798,2.299 -1.501,4.847 -1.308,7.209 0.164,2.002 1.659,3.897 2.576,5.835 1.021,2.157 2.956,3.379 5.107,3.111 C -0.347,9.119 2.411,8.294 4.912,7.15 8.017,5.73 10.914,3.776 12.559,0.583 13.585,-1.409 14.391,-3.515 15.254,-5.474 10.099,-3.647 5.023,-1.893 0,0 m 18.415,-15.233 c 1.424,-6.404 2.804,-12.818 4.129,-19.243 0.72,-3.492 1.389,-6.933 0.177,-10.568 -0.671,-2.013 -1.005,-4.077 -3.323,-4.549 -3.198,-0.653 -6.008,0.301 -8.417,2.614 -2.877,2.762 -3.112,6.452 -3.916,9.997 -0.91,4.012 -2.148,7.95 -3.051,11.963 -0.84,3.736 -3.161,6.297 -6.159,8.337 -2.487,1.692 -1.948,3.726 -1.193,6.051 0.811,2.494 1.238,5.113 2.002,7.625 0.151,0.498 1.216,1.2 1.616,1.068 4.273,-1.41 8.529,-2.887 12.715,-4.535 1.344,-0.528 2.467,-1.615 3.66,-2.424 0.622,-2.217 1.297,-4.253 1.76,-6.336 m 6.356,-28.217 c 0.366,3.288 -0.487,6.75 -1.065,10.094 -0.545,3.15 -1.475,6.233 -2.115,9.37 -0.396,1.942 -0.353,3.99 -0.88,5.887 -1.336,4.808 -2.686,9.63 -4.421,14.301 -0.992,2.671 -2.316,5.485 -4.269,7.466 -2.462,2.497 -5.556,4.516 -8.679,6.175 -3.223,1.713 -7.038,2.371 -10.25,0.21 -2.884,-1.942 -4.841,-5.023 -5.456,-8.545 -1.119,-6.408 1.604,-11.648 5.752,-16.188 2.229,-2.44 5.771,-4.048 7.147,-6.815 2.261,-4.545 3.435,-9.678 4.7,-14.656 0.971,-3.822 1.202,-7.81 3.775,-11.115 2.488,-3.196 8.023,-5.828 12.681,-3.106 2.987,1.096 2.808,4.47 3.08,6.922"
           inkscape:connector-curvature="0" /></g><g
         id="g2049"
         transform="matrix(1.3333333,0,0,-1.3333333,468.48612,245.89324)"><path
           id="path2047"
           style="fill:#000000;fill-opacity:1;fill-rule:nonzero;stroke:none"
           d="m 0,0 c -0.088,-0.227 -0.175,-0.453 -0.263,-0.68 0.754,-0.291 1.499,-0.61 2.269,-0.854 0.22,-0.07 0.51,0.082 0.932,0.165 C 2.347,-2.576 1.848,-3.654 1.278,-4.694 1.195,-4.844 0.75,-4.899 0.51,-4.842 c -5.649,1.352 -10.175,4.444 -13.687,9.017 -0.334,0.435 -0.14,1.277 -0.19,1.93 0.578,-0.066 1.221,0.008 1.725,-0.222 C -7.663,4.07 -3.711,2.2 0.247,0.343 0.478,0.234 0.689,0.085 0.91,-0.045 0.87,-0.131 0.83,-0.218 0.79,-0.305 0.527,-0.203 0.263,-0.102 0,0 m 12.346,-22.564 c -4.511,1.494 -8.633,3.68 -10.92,8.201 -0.181,0.359 -0.231,0.831 -0.202,1.241 0.273,3.752 1.325,7.277 2.969,10.666 1.102,2.272 2.042,4.63 2.93,6.997 1.217,3.244 3.529,3.704 6.368,1.605 3.595,-2.657 7.507,-4.881 11.144,-7.485 4.651,-3.328 9.747,-6.084 13.171,-10.989 1.652,-2.366 4.156,-4.273 4.155,-7.396 -10e-4,-2.006 -0.645,-4.032 -1.169,-6.004 -0.127,-0.48 -0.864,-1.012 -1.408,-1.133 -4.699,-1.049 -9.377,-0.898 -13.993,0.517 -4.352,1.248 -8.75,2.357 -13.045,3.78 M 10.077,11.085 C 9.617,10.863 8.942,10.765 8.733,10.399 7.069,7.493 5.511,4.525 3.862,1.61 3.698,1.32 3.051,1.017 2.78,1.12 0.783,1.877 -1.213,2.656 -3.137,3.581 c -2.826,1.359 -5.556,2.924 -8.408,4.222 -0.779,0.355 -2.209,0.452 -2.7,-0.011 -0.685,-0.645 -1.091,-1.954 -1.017,-2.933 0.071,-0.927 0.76,-1.943 1.446,-2.665 3.416,-3.596 7.176,-6.72 12.021,-8.281 1.351,-0.436 2.423,-1.12 1.747,-2.963 -1.346,-3.67 -0.358,-6.891 2.291,-9.624 2.86,-2.952 6.611,-4.361 10.386,-5.602 4.257,-1.4 8.52,-2.921 12.901,-3.761 4.029,-0.772 8.215,-0.86 12.337,-0.929 1.313,-0.022 3.231,0.603 3.863,1.583 2.793,4.332 2.978,9.413 -0.492,13.724 -3.954,4.911 -8.461,9.186 -13.892,12.543 -5.046,3.12 -9.802,6.708 -14.718,10.043 -0.64,0.435 -1.469,0.593 -2.178,0.866 -0.104,0.36 -0.239,0.826 -0.373,1.292"
           inkscape:connector-curvature="0" /></g><g
         id="g2053"
         transform="matrix(1.3333333,0,0,-1.3333333,486.31772,252.11991)"><path
           id="path2051"
           style="fill:#000000;fill-opacity:1;fill-rule:nonzero;stroke:none"
           d="m 0,0 c -0.4,0.011 -1.021,-0.137 -1.164,0.06 -0.657,0.909 -1.18,1.915 -1.752,2.887 0.981,-0.179 2.074,-0.136 2.925,-0.57 6.569,-3.35 13.092,-6.79 19.626,-10.21 0.561,-0.293 1.161,-0.569 1.612,-0.992 0.299,-0.281 0.365,-0.811 0.535,-1.229 -0.469,-0.027 -1.043,-0.243 -1.389,-0.05 -3.154,1.76 -6.222,3.678 -9.407,5.376 C 7.462,-2.848 3.841,-1.15 0.262,0.627 0.175,0.418 0.087,0.209 0,0"
           inkscape:connector-curvature="0" /></g><g
         id="g2057"
         transform="matrix(1.3333333,0,0,-1.3333333,512.93598,276.10044)"><path
           id="path2055"
           style="fill:#000000;fill-opacity:1;fill-rule:nonzero;stroke:none"
           d="m 0,0 c -4.816,2.44 -9.176,4.636 -13.525,6.855 -2.892,1.476 -5.763,2.995 -8.656,4.469 -0.504,0.256 -1.222,0.247 -1.568,0.616 -0.348,0.371 -0.356,1.061 -0.513,1.611 0.739,-0.026 1.617,0.199 2.191,-0.121 2.347,-1.311 4.528,-2.929 6.905,-4.176 C -10.18,6.64 -5.101,4.205 -0.088,1.644 0.299,1.446 0.474,0.835 0.747,0.416 0.34,0.189 -0.066,-0.037 0,0"
           inkscape:connector-curvature="0" /></g><g
         id="g2061"
         transform="matrix(1.3333333,0,0,-1.3333333,393.55292,88.516712)"><path
           id="path2059"
           style="fill:#000000;fill-opacity:1;fill-rule:nonzero;stroke:none"
           d="m 0,0 c -0.614,-3.611 -1.98,-7.011 -4.717,-9.588 -2.652,-2.498 -5.244,-5.174 -8.283,-7.11 -2.58,-1.645 -5.72,-2.472 -8.688,-3.428 -2.707,-0.872 -5.508,-1.457 -8.279,-2.124 -4.34,-1.045 -8.213,0.176 -11.657,2.754 -1.802,1.349 -3.331,3.062 -4.992,4.601 -3.895,3.61 -4.634,8.501 -5.203,13.362 -0.368,3.149 -0.632,6.417 -0.192,9.525 0.528,3.732 1.701,7.411 4.276,10.414 0.749,0.874 1.223,2.152 2.145,2.674 2.165,1.225 4.458,2.315 6.822,3.076 3.271,1.052 6.617,2 10.004,2.509 2.09,0.315 4.316,-0.267 6.48,-0.451 0.551,-0.046 1.112,-0.211 1.648,-0.151 2.887,0.327 5.33,-0.731 7.6,-2.353 4.293,-3.068 8.195,-6.559 10.543,-11.372 C -1.348,9.991 -0.739,7.382 0.112,4.892 -0.081,4.833 -0.275,4.774 -0.469,4.714 -0.288,3.139 0.255,1.501 0,0 M 1.158,6.485 C 1.143,6.756 1.007,7.019 0.95,7.291 c -1.163,5.554 -4.033,10.14 -8.392,13.648 -2.976,2.394 -6.19,4.584 -9.569,6.344 -1.581,0.824 -3.803,0.413 -5.734,0.566 -1.93,0.154 -3.939,0.732 -5.773,0.384 -4.067,-0.772 -7.993,-2.429 -12.074,-2.941 -4.365,-0.548 -6.716,-3.299 -9.07,-6.355 -2.939,-3.814 -3.824,-8.291 -3.979,-12.938 -0.091,-2.736 -0.224,-5.551 0.295,-8.207 0.714,-3.658 1.71,-7.338 3.203,-10.737 0.886,-2.016 2.908,-3.562 4.515,-5.227 2.585,-2.68 5.416,-5.06 9.277,-5.586 1.914,-0.261 3.933,-0.584 5.79,-0.246 3.15,0.572 6.178,1.794 9.316,2.47 3.838,0.826 7.408,2.129 10.484,4.618 0.587,0.475 1.184,0.944 1.727,1.468 2.519,2.428 5.467,4.566 7.417,7.391 2.559,3.708 4.252,7.979 2.785,12.168 0,1.178 0.022,1.777 -0.01,2.374"
           inkscape:connector-curvature="0" /></g><g
         id="g2065"
         transform="matrix(1.3333333,0,0,-1.3333333,413.55185,37.676313)"><path
           id="path2063"
           style="fill:#000000;fill-opacity:1;fill-rule:nonzero;stroke:none"
           d="m 0,0 c 0.945,-0.908 0.858,-1.565 -0.713,-2.278 -4.852,-2.201 -9.623,-4.58 -14.46,-6.815 -0.495,-0.229 -1.223,0.045 -1.843,0.086 0.369,0.433 0.652,1.039 1.12,1.271 C -10.678,-5.155 -5.43,-2.632 0,0"
           inkscape:connector-curvature="0" /></g><g
         id="g2069"
         transform="matrix(1.3333333,0,0,-1.3333333,292.05145,62.60418)"><path
           id="path2067"
           style="fill:#000000;fill-opacity:1;fill-rule:nonzero;stroke:none"
           d="m 0,0 c 0.71,-0.425 1.356,-0.691 1.852,-1.128 2.343,-2.064 4.62,-4.204 6.98,-6.248 0.607,-0.527 1.547,-0.685 2.112,-1.239 0.373,-0.366 0.349,-1.136 0.503,-1.725 -0.478,-0.05 -1.13,-0.327 -1.404,-0.115 -1.867,1.444 -3.644,3.003 -5.471,4.499 -1.504,1.231 -3.067,2.39 -4.535,3.66 -0.385,0.333 -0.616,0.943 -0.713,1.464 C -0.719,-0.606 -0.244,-0.283 0,0"
           inkscape:connector-curvature="0" /></g><g
         id="g2073"
         transform="matrix(1.3333333,0,0,-1.3333333,323.82172,52.106846)"><path
           id="path2071"
           style="fill:#000000;fill-opacity:1;fill-rule:nonzero;stroke:none"
           d="m 0,0 c -0.341,-0.485 -0.573,-1.034 -0.746,-1.016 -0.375,0.039 -0.902,0.282 -1.049,0.593 -1.809,3.813 -3.568,7.651 -5.321,11.491 -0.213,0.466 -0.419,0.975 -0.444,1.473 -0.023,0.459 0.201,0.931 0.316,1.398 0.476,-0.374 1.145,-0.648 1.396,-1.137 1.454,-2.843 2.84,-5.723 4.184,-8.621 C -1.033,2.823 -0.55,1.397 0,0"
           inkscape:connector-curvature="0" /></g><g
         id="g2077"
         transform="matrix(1.3333333,0,0,-1.3333333,420.24492,60.162846)"><path
           id="path2075"
           style="fill:#000000;fill-opacity:1;fill-rule:nonzero;stroke:none"
           d="m 0,0 c 0.274,-0.304 0.796,-0.631 0.779,-0.927 -0.021,-0.361 -0.43,-0.887 -0.784,-1.007 -1.237,-0.419 -2.558,-0.598 -3.783,-1.043 -3.243,-1.175 -6.442,-2.47 -9.688,-3.636 -0.385,-0.138 -0.953,0.231 -1.437,0.364 0.287,0.433 0.483,1.116 0.876,1.261 3.948,1.454 7.93,2.819 11.901,4.212 C -1.492,-0.55 -0.852,-0.31 0,0"
           inkscape:connector-curvature="0" /></g><g
         id="g2081"
         transform="matrix(1.3333333,0,0,-1.3333333,335.70479,27.79378)"><path
           id="path2079"
           style="fill:#000000;fill-opacity:1;fill-rule:nonzero;stroke:none"
           d="m 0,0 c 1.142,-2.884 2.345,-5.747 3.375,-8.67 0.215,-0.612 -0.208,-1.449 -0.337,-2.182 -0.513,0.404 -1.354,0.723 -1.485,1.226 -0.986,3.781 -1.864,7.592 -2.696,11.411 -0.181,0.83 -0.107,1.737 -0.014,2.593 0.03,0.276 0.496,0.504 0.763,0.754 C -0.203,4.842 0.112,4.57 0.158,4.259 0.357,2.925 0.477,1.58 0.626,0.239 0.417,0.159 0.209,0.08 0,0"
           inkscape:connector-curvature="0" /></g><g
         id="g2085"
         transform="matrix(1.3333333,0,0,-1.3333333,376.99839,37.125113)"><path
           id="path2083"
           style="fill:#000000;fill-opacity:1;fill-rule:nonzero;stroke:none"
           d="m 0,0 c 0.842,1.228 1.779,2.318 2.4,3.566 0.947,1.899 1.662,3.913 2.514,5.862 0.094,0.214 0.423,0.382 0.678,0.459 0.707,0.215 1.432,0.372 2.15,0.552 C 7.733,9.828 7.951,9.077 7.677,8.628 5.764,5.5 3.76,2.427 1.746,-0.638 1.595,-0.868 1.078,-1.063 0.838,-0.977 0.545,-0.871 0.364,-0.451 0,0"
           inkscape:connector-curvature="0" /></g><g
         id="g2089"
         transform="matrix(1.3333333,0,0,-1.3333333,336.57185,131.67231)"><path
           id="path2087"
           style="fill:#000000;fill-opacity:1;fill-rule:nonzero;stroke:none"
           d="m 0,0 c -0.756,-2.617 -1.365,-5.053 -2.175,-7.419 -0.581,-1.696 -1.387,-3.321 -2.194,-4.927 -0.178,-0.355 -0.783,-0.494 -1.192,-0.733 -0.098,0.545 -0.42,1.17 -0.257,1.621 1.182,3.275 2.475,6.51 3.697,9.77 0.192,0.511 0.135,1.114 0.322,1.628 0.172,0.473 0.517,0.884 0.785,1.322 C -0.677,0.842 -0.34,0.423 0,0"
           inkscape:connector-curvature="0" /></g><g
         id="g2093"
         transform="matrix(1.3333333,0,0,-1.3333333,369.52145,144.65524)"><path
           id="path2091"
           style="fill:#000000;fill-opacity:1;fill-rule:nonzero;stroke:none"
           d="m 0,0 c -0.1,-0.106 -0.361,-0.611 -0.686,-0.656 -0.269,-0.038 -0.816,0.418 -0.895,0.74 -0.904,3.684 -1.766,7.379 -2.556,11.089 -0.067,0.312 0.399,0.859 0.753,1.084 0.164,0.104 0.906,-0.249 0.958,-0.488 C -1.6,7.971 -0.843,4.159 0,0"
           inkscape:connector-curvature="0" /></g><g
         id="g2097"
         transform="matrix(1.3333333,0,0,-1.3333333,315.71972,120.50751)"><path
           id="path2095"
           style="fill:#000000;fill-opacity:1;fill-rule:nonzero;stroke:none"
           d="m 0,0 c -0.42,-0.506 -0.727,-1.178 -1.245,-1.454 -3.429,-1.834 -6.894,-3.599 -10.374,-5.334 -0.369,-0.184 -0.907,-0.028 -1.367,-0.03 0.194,0.505 0.241,1.262 0.606,1.476 2.606,1.523 5.285,2.922 7.925,4.39 0.926,0.515 1.79,1.139 2.714,1.657 0.354,0.199 0.806,0.349 1.192,0.31 C -0.37,0.997 -0.242,0.473 0,0"
           inkscape:connector-curvature="0" /></g><g
         id="g2101"
         transform="matrix(1.3333333,0,0,-1.3333333,357.36292,37.56258)"><path
           id="path2099"
           style="fill:#000000;fill-opacity:1;fill-rule:nonzero;stroke:none"
           d="m 0,0 c 0.144,0.454 0.159,0.921 0.398,1.186 2.507,2.775 2.189,6.523 3.389,9.743 0.304,0.817 0.41,1.712 0.753,2.509 0.113,0.263 0.686,0.328 1.049,0.484 0.122,-0.335 0.408,-0.707 0.34,-0.997 C 5.208,9.831 4.58,6.702 3.608,3.685 3.111,2.142 1.984,0.798 1.108,-0.616 1.012,-0.773 0.564,-0.918 0.512,-0.861 0.293,-0.615 0.161,-0.291 0,0"
           inkscape:connector-curvature="0" /></g><g
         id="g2105"
         transform="matrix(1.3333333,0,0,-1.3333333,402.62785,92.567512)"><path
           id="path2103"
           style="fill:#000000;fill-opacity:1;fill-rule:nonzero;stroke:none"
           d="m 0,0 c 0.438,-0.176 0.776,-0.287 1.093,-0.442 3.042,-1.488 6.092,-2.96 9.108,-4.499 0.571,-0.291 1.051,-0.815 1.464,-1.321 0.098,-0.121 -0.306,-0.885 -0.375,-0.87 -0.584,0.126 -1.156,0.336 -1.71,0.573 -1.821,0.776 -3.672,1.498 -5.438,2.387 -1.583,0.796 -3.08,1.767 -4.585,2.709 -0.189,0.119 -0.332,0.579 -0.253,0.791 C -0.595,-0.402 -0.248,-0.224 0,0"
           inkscape:connector-curvature="0" /></g><g
         id="g2109"
         transform="matrix(1.3333333,0,0,-1.3333333,306.18585,104.54765)"><path
           id="path2107"
           style="fill:#000000;fill-opacity:1;fill-rule:nonzero;stroke:none"
           d="m 0,0 c -4.094,0.826 -7.864,1.566 -11.616,2.383 -0.306,0.066 -0.496,0.664 -0.74,1.014 0.381,0.195 0.795,0.604 1.137,0.551 C -7.474,3.356 -3.736,2.72 -0.013,2.005 0.356,1.935 0.86,1.252 0.844,0.873 0.829,0.52 0.203,0.193 0,0"
           inkscape:connector-curvature="0" /></g><g
         id="g2113"
         transform="matrix(1.3333333,0,0,-1.3333333,399.58492,131.08484)"><path
           id="path2111"
           style="fill:#000000;fill-opacity:1;fill-rule:nonzero;stroke:none"
           d="m 0,0 c -0.218,-0.241 -0.399,-0.602 -0.569,-0.597 -0.399,0.012 -0.966,0.071 -1.16,0.335 -1.582,2.155 -3.1,4.357 -4.625,6.554 -0.562,0.809 -1.132,1.617 -1.611,2.475 -0.209,0.374 -0.197,0.872 -0.285,1.314 0.51,-0.083 1.272,0.015 1.485,-0.281 0.944,-1.313 1.67,-2.781 2.589,-4.114 C -3.007,3.989 -1.727,2.368 -0.497,0.713 -0.338,0.5 -0.193,0.278 0,0"
           inkscape:connector-curvature="0" /></g><g
         id="g2117"
         transform="matrix(1.3333333,0,0,-1.3333333,350.56265,96.763779)"><path
           id="path2115"
           style="fill:#000000;fill-opacity:1;fill-rule:nonzero;stroke:none"
           d="m 0,0 c -1.835,-0.015 -5.013,2.169 -5.454,3.896 -0.117,0.459 0.193,1.142 0.525,1.542 0.125,0.151 0.887,-0.161 1.317,-0.355 C -3.383,4.98 -3.235,4.684 -3.063,4.465 -2.14,3.29 -1.575,1.594 0.406,1.891 2.823,2.253 4.75,3.331 5.824,5.677 6.131,6.347 6.666,6.919 7.161,7.48 7.198,7.523 8.006,7.123 8.011,6.918 8.033,5.961 8.206,4.817 7.764,4.075 6.414,1.808 2.741,0.022 0,0"
           inkscape:connector-curvature="0" /></g><g
         id="g2121"
         transform="matrix(1.3333333,0,0,-1.3333333,345.63999,71.479779)"><path
           id="path2119"
           style="fill:#000000;fill-opacity:1;fill-rule:nonzero;stroke:none"
           d="m 0,0 c 0.01,-1.499 -2.023,-4.304 -3.471,-4.581 -1.343,-0.257 -2.015,0.172 -1.864,1.811 0.208,2.254 1.356,3.536 3.369,4.233 C -0.688,1.906 -0.009,1.393 0,0"
           inkscape:connector-curvature="0" /></g><g
         id="g2125"
         transform="matrix(1.3333333,0,0,-1.3333333,370.34919,70.856846)"><path
           id="path2123"
           style="fill:#000000;fill-opacity:1;fill-rule:nonzero;stroke:none"
           d="m 0,0 c -1.376,-1.511 -2.217,-3.102 -3.481,-3.582 -0.813,-0.31 -2.756,0.462 -2.555,2.459 0.138,1.372 2.349,3.343 3.836,3.05 C -1.553,1.799 -1.047,0.954 0,0"
           inkscape:connector-curvature="0" /></g><g
         id="g2129"
         transform="matrix(1.3333333,0,0,-1.3333333,309.18732,170.54778)"><path
           id="path2127"
           style="fill:#000000;fill-opacity:1;fill-rule:nonzero;stroke:none"
           d="m 0,0 c -0.684,-2.518 -2.125,-4.961 -3.725,-7.058 -1.247,-1.635 -3.26,-2.687 -4.933,-3.997 -0.152,0.177 -0.303,0.354 -0.455,0.531 1.977,3.098 0.841,11.596 -2.071,13.062 2.977,0.843 3.551,3.35 4.35,5.744 C -6.082,10.537 -4.645,8.968 -4,8.415 -1.454,6.235 0.987,3.633 0,0 m -12.494,-12.38 c -1.065,-1.087 -3.502,-1.342 -5.217,-1.142 -1.875,0.219 -3.594,1.54 -5.461,2.125 -1.758,0.55 -3.618,0.778 -5.438,1.127 -0.762,0.146 -1.662,0.034 -2.264,0.414 -0.479,0.302 -0.6,1.171 -0.881,1.789 0.516,0.18 1.022,0.48 1.548,0.52 3.704,0.281 6.714,1.745 6.563,5.783 -0.072,1.933 1.047,1.665 2.367,1.555 1.564,-0.132 3.194,-0.172 4.721,0.126 1.467,0.287 2.839,1.059 4.399,1.675 0.594,-1.285 1.334,-2.498 1.727,-3.814 1.112,-3.726 0.634,-7.402 -2.064,-10.158 m -20.266,6.162 c -0.102,-0.03 -0.197,-0.069 -0.283,-0.117 0.022,-0.04 0.043,-0.081 0.066,-0.121 -0.558,-0.231 -1.276,-0.81 -1.649,-0.639 -2.941,1.353 -5.848,2.792 -8.704,4.319 -2.397,1.281 -4.752,2.643 -7.099,4.018 -2.24,1.007 -4.449,2.099 -6.402,3.591 -0.581,0.444 -1.096,0.95 -1.531,1.499 -1.529,1.136 -2.981,2.365 -4.338,3.709 -0.3,0.228 -0.536,0.495 -0.74,0.777 -0.885,0.937 -1.738,1.914 -2.512,2.986 -0.442,0.612 -0.991,1.156 -1.373,1.801 -0.167,0.282 -0.162,0.811 0,1.094 0.08,0.141 0.436,0.245 0.706,0.238 0.135,0.105 0.307,0.185 0.527,0.219 0.858,0.133 1.705,0.431 2.57,0.482 -0.032,0.058 -0.07,0.11 -0.099,0.17 0.628,0.247 1.197,0.331 1.727,0.301 2.738,1.241 7.173,0.782 10.119,0.396 0.332,0.059 0.644,0.125 0.946,0.118 4.272,-0.101 8.545,-0.187 12.813,-0.382 0.216,-0.01 0.426,-0.183 0.647,-0.413 2.264,-0.947 4.48,-1.915 6.91,-2.413 1.765,-0.362 4.177,-0.217 5.783,-1.157 0.2,-0.117 0.392,-0.265 0.578,-0.428 0.469,-0.325 0.859,-0.848 1.153,-1.48 0.575,-1.068 0.849,-2.341 0.566,-3.431 -0.048,-0.505 -0.154,-0.996 -0.33,-1.445 -0.101,0.083 -0.197,0.163 -0.297,0.245 -1.071,-1.218 -3.4,-1.399 -4.742,-2.22 -3.76,-2.299 -1.032,-2.999 0.905,-4.339 0.403,-0.121 0.803,-0.251 1.189,-0.413 0.262,-0.109 0.255,-0.86 0.372,-1.316 -0.028,-0.001 -0.06,-0.008 -0.089,-0.011 0.134,-0.377 0.188,-0.77 0.171,-1.158 0.015,0.003 0.029,0.005 0.044,0.008 -0.019,-0.054 -0.041,-0.124 -0.063,-0.193 -0.044,-0.426 -0.17,-0.842 -0.368,-1.222 -0.15,-0.475 -0.301,-0.867 -0.415,-0.857 -0.064,0.007 -0.13,0.022 -0.194,0.03 -0.028,-0.027 -0.063,-0.045 -0.091,-0.071 -0.327,-0.512 -0.81,-0.934 -1.492,-1.209 -0.251,-0.101 -0.511,-0.172 -0.775,-0.23 -1.257,-0.659 -2.82,-0.895 -4.206,-0.736 m 2.505,27.461 c 4.221,-1.333 8.451,-2.13 12.904,-2.253 3.836,-0.105 6.763,-2.329 8.855,-5.515 1.399,-2.128 -0.509,-8.046 -2.825,-9.112 -0.705,-0.325 -1.359,-0.775 -2,-1.221 -3.634,-2.526 -10.857,-1.863 -14.541,0.8 1.447,0.214 2.768,0.413 4.089,0.604 2.294,0.333 3.785,2.54 3.245,4.81 -0.037,0.154 -0.17,0.347 -0.118,0.452 0.958,1.934 0.224,3.354 -1.454,4.327 -1.391,0.807 -2.897,1.418 -4.361,2.095 -0.208,0.096 -0.476,0.05 -0.706,0.109 -2.328,0.603 -4.653,1.213 -6.513,1.7 -0.349,1.093 -0.599,1.877 -0.998,3.127 1.441,0.049 3.071,0.504 4.423,0.077 M 2.259,2.054 c -1.015,4.006 -3.206,7.272 -7.299,8.932 -0.615,0.249 -1.002,1.165 -1.396,1.831 -0.682,1.152 -1.065,2.564 -1.962,3.491 -3.536,3.656 -7.925,4.997 -12.995,4.571 -1.43,-0.12 -2.93,0.506 -4.39,0.829 -3.912,0.863 -8.082,3.683 -11.179,-1.523 -0.074,-0.123 -0.449,-0.091 -0.683,-0.092 -5.327,-0.003 -10.693,-0.398 -15.97,0.117 -4.87,0.475 -9.42,-0.47 -14.045,-1.453 -1.422,-0.303 -2.448,-2.384 -1.544,-3.454 2.574,-3.051 5.038,-6.291 8.066,-8.835 3.346,-2.811 7.214,-5.024 10.958,-7.327 3.332,-2.05 6.804,-3.872 10.218,-5.785 2.647,-1.482 5.892,-1.828 7.953,-4.494 0.522,-0.675 2.025,-1.084 2.917,-0.887 2.34,0.517 4.237,-0.291 6.068,-1.438 3.633,-2.276 7.359,-2.751 11.16,-0.599 0.85,0.481 1.382,1.522 1.699,1.888 1.06,-0.048 1.782,-0.275 2.352,-0.074 3.31,1.163 5.842,3.295 7.465,6.43 0.595,1.149 1.195,2.314 1.606,3.535 0.476,1.419 1.326,3.053 1.001,4.337"
           inkscape:connector-curvature="0" /></g></pattern></defs><g
     id="g2697"
     sodipodi:insensitive="true"
     inkscape:groupmode="layer"
     inkscape:label="[fixed] BG"
     transform="translate(0,-39.867706)"><rect
       id="rect2695"
       style="fill:#ffffff;fill-opacity:1;stroke:none;stroke-width:0.3997691"
       height="30"
       width="60"
       y="40"
       x="0" /></g><g
     id="g2699"
     inkscape:groupmode="layer"
     inkscape:label="Edge.Cuts"
     transform="translate(0,-39.867706)" /><g
     id="g2701"
     inkscape:groupmode="layer"
     inkscape:label="B.Cu-disabled"
     transform="translate(0,-39.867706)" /><g
     id="g2703"
     inkscape:groupmode="layer"
     inkscape:label="B.Mask-disabled"
     transform="translate(0,-39.867706)" /><g
     id="g2705"
     inkscape:groupmode="layer"
     inkscape:label="B.Silk-disabled"
     transform="translate(0,-39.867706)" /><g
     id="g2707"
     inkscape:groupmode="layer"
     inkscape:label="F.Cu"
     transform="translate(0,-39.867706)" /><g
     id="g2709"
     inkscape:groupmode="layer"
     inkscape:label="F.Mask-disabled"
     transform="translate(0,-39.867706)" /><g
     id="g2711"
     inkscape:groupmode="layer"
     inkscape:label="F.Silk"
     transform="translate(0,-39.867706)"><path
       style="opacity:1;fill:url(#pattern2339);fill-opacity:1;stroke:none;stroke-width:0.26458332;stroke-miterlimit:4;stroke-dasharray:none;stroke-opacity:1"
       id="path2979"
       sodipodi:type="arc"
       sodipodi:cx="-30.132292"
       sodipodi:cy="-69.867706"
       sodipodi:rx="30"
       sodipodi:ry="30"
       sodipodi:start="0"
       sodipodi:end="3.1415927"
       d="m -0.13229179,-69.867706 a 30,30 0 0 1 -15.00000021,25.980762 30,30 0 0 1 -30.000001,-10e-7 30,30 0 0 1 -14.999999,-25.980763 l 30,2e-6 z"
       transform="scale(-1)" /><rect
       style="opacity:1;fill:#ffffff;fill-opacity:1;stroke:none;stroke-width:0.20465237;stroke-miterlimit:4;stroke-dasharray:none;stroke-opacity:1"
       id="rect2983"
       width="26.15304"
       height="4.0466022"
       x="-0.2997483"
       y="65.878456" /><rect
       y="65.9534"
       x="33.846958"
       height="4.0466022"
       width="26.15304"
       id="rect2985"
       style="opacity:1;fill:#ffffff;fill-opacity:1;stroke:none;stroke-width:0.20465237;stroke-miterlimit:4;stroke-dasharray:none;stroke-opacity:1" /><rect
       style="opacity:1;fill:#ffffff;fill-opacity:1;stroke:none;stroke-width:0.15100138;stroke-miterlimit:4;stroke-dasharray:none;stroke-opacity:1"
       id="rect2983-0"
       width="8.5428257"
       height="6.7443371"
       x="0.037468184"
       y="62.131603" /><rect
       y="58.010059"
       x="18.322115"
       height="12.139807"
       width="24.279612"
       id="rect3004"
       style="opacity:1;fill:#ffffff;fill-opacity:1;stroke:none;stroke-width:0.34153661;stroke-miterlimit:4;stroke-dasharray:none;stroke-opacity:1" /><circle
       style="opacity:1;fill:#ffffff;fill-opacity:1;stroke:none;stroke-width:0.26458332;stroke-miterlimit:4;stroke-dasharray:none;stroke-opacity:1"
       id="path3010"
       cx="30.200001"
       cy="49.092556"
       r="7" /><rect
       y="58.684498"
       x="6.6319308"
       height="5.470407"
       width="5.6952167"
       id="rect3012"
       style="opacity:1;fill:#ffffff;fill-opacity:1;stroke:none;stroke-width:0.11103898;stroke-miterlimit:4;stroke-dasharray:none;stroke-opacity:1" /></g><g
     id="g2713"
     inkscape:groupmode="layer"
     inkscape:label="Drill"
     transform="translate(0,-39.867706)" /></svg>